# This file uses centimeters as units for non-parametric coordinates.

v -11560.699738 -0.000000 0.000000
v 0.000000 -0.000000 0.000000
v -11560.699738 -0.000000 -45177.541879
v 0.000000 -0.000000 -45177.541879
v -11560.699738 -0.000000 -4803.140179
v 0.000000 -0.000000 -4803.140179
v -11560.699738 -0.000000 -7241.789436
v 0.000000 -0.000000 -7241.789436
v -11560.699738 -0.000000 -13051.585255
v 0.000000 -0.000000 -13051.585255
v -11560.699738 -0.000000 -8756.309208
v 0.000000 -0.000000 -8756.309208
v -11560.699738 -0.000000 -10867.450062
v 0.000000 -0.000000 -10867.450062
v -4318.921648 -0.000000 -4803.140179
v -4318.921648 -0.000000 -7241.789436
v -4318.921648 -0.000000 -8756.309208
v -4318.921648 -0.000000 -10867.450062
v -4318.921648 -0.000000 -13051.585255
v -2842.000055 -0.000000 -4803.140179
v -2842.000055 -0.000000 -7241.789436
v -2842.000055 -0.000000 -8756.308579
v -2842.000055 -0.000000 -10867.448805
v -2842.000055 -0.000000 -13051.585255
v -1430.541785 -0.000000 -4803.140179
v -1430.541785 -0.000000 -7241.789436
v -1430.541785 -0.000000 -8756.309208
v -1430.541785 -0.000000 -10867.448805
v -1430.541785 -0.000000 -13051.585255
vt 0.003906 0.524212
vt 0.887067 0.198284
vt 0.887067 0.131813
vt 0.887067 0.068288
vt 0.887067 0.003906
vt 0.704027 0.003906
vt 0.704027 0.524212
vt 0.839465 0.524209
vt 0.839465 0.198284
vt 0.839465 0.131813
vt 0.839465 0.068288
vt 0.839465 0.003906
vt 0.793457 0.524209
vt 0.793457 0.198284
vt 0.793457 0.131813
vt 0.793457 0.068288
vt 0.793457 0.003906
vt 0.760456 0.524209
vt 0.760456 0.198284
vt 0.760456 0.131813
vt 0.760456 0.068288
vt 0.760456 0.003906
vt 0.707307 0.524209
vt 0.707307 0.198284
vt 0.707307 0.131813
vt 0.707307 0.068288
vt 0.996094 0.003906
vt 0.891419 0.524211
vt 0.891419 0.003906
vt 0.996094 0.524211
vt 0.996094 0.198285
vt 0.996094 0.131813
vt 0.996094 0.068288
vt 0.707307 0.003906
vt 0.003906 0.003906
vt 0.003906 0.068289
vt 0.003906 0.131813
vt 0.887067 0.524209
vt 0.003906 0.198285
vn 0.000000 1.000000 0.000000
vn -0.000000 1.000000 0.000000
vn -0.000000 1.000000 0.000000
vn 0.000000 1.000000 0.000000
vn 0.000000 1.000000 0.000000
vn 0.000000 1.000000 0.000000
vn 0.000000 1.000000 0.000000
vn 0.000000 1.000000 0.000000
vn 0.000000 1.000000 0.000000
vn 0.000000 1.000000 0.000000
vn 0.000000 1.000000 0.000000
vn 0.000000 1.000000 0.000000
vn 0.000000 1.000000 0.000000
vn 0.000000 1.000000 0.000000
vn 0.000000 1.000000 0.000000
vn 0.000000 1.000000 0.000000
vn 0.000000 1.000000 0.000000
vn -0.000000 1.000000 0.000000
vn -0.000000 1.000000 0.000000
vn 0.000000 1.000000 0.000000
vn 0.000000 1.000000 0.000000
vn -0.000000 1.000000 0.000000
vn -0.000000 1.000000 0.000000
vn 0.000000 1.000000 0.000000
vn 0.000000 1.000000 0.000000
vn 0.000000 1.000000 0.000000
vn 0.000000 1.000000 0.000000
vn 0.000000 1.000000 0.000000
vn 0.000000 1.000000 0.000000
s 1
f 9/1/1 19/39/2 24/37/3 29/36/4 10/35/5 4/6/6 3/7/7
f 1/28/8 2/29/9 6/27/10 25/33/11 20/32/12 15/31/13 5/30/14
f 5/23/14 15/24/13 16/19/15 7/18/16
f 13/8/17 18/9/18 19/2/2 9/38/1
f 7/18/16 16/19/15 17/14/19 11/13/20
f 11/13/20 17/14/19 18/9/18 13/8/17
f 16/19/15 15/24/13 20/25/12 21/20/21
f 17/14/19 16/19/15 21/20/21 22/15/22
f 18/9/18 17/14/19 22/15/22 23/10/23
f 19/2/2 18/9/18 23/10/23 24/3/3
f 21/20/21 20/25/12 25/26/11 26/21/24
f 22/15/22 21/20/21 26/21/24 27/16/25
f 23/10/23 22/15/22 27/16/25 28/11/26
f 24/3/3 23/10/23 28/11/26 29/4/4
f 26/21/24 25/26/11 6/34/10 8/22/27
f 27/16/25 26/21/24 8/22/27 12/17/28
f 28/11/26 27/16/25 12/17/28 14/12/29
f 29/4/4 28/11/26 14/12/29 10/5/5
