# This file uses centimeters as units for non-parametric coordinates.

v -288.094482 192.461151 -865.967285
v -288.094482 192.461151 0.000000
v -288.094482 225.098541 -865.967285
v -288.094482 225.098541 0.000000
v -0.000000 225.098541 -865.967285
v 0.000000 225.098541 0.000000
v -0.000000 192.461151 -865.967285
v 0.000000 192.461151 0.000000
v -240.486572 225.098541 -865.967285
v -240.486572 225.098541 0.000000
v -240.486572 192.461151 0.000000
v -240.486572 192.461151 -865.967285
v -52.001221 225.098541 -865.967285
v -52.001221 225.098541 0.000000
v -52.001221 192.461151 0.000000
v -52.001221 192.461151 -865.967285
v -52.001221 192.461151 -37.833008
v -0.000000 192.461151 -37.833008
v -0.000000 225.098541 -37.833008
v -52.001221 225.098541 -37.833008
v -52.001221 192.461151 -826.208984
v -0.000000 192.461151 -826.208984
v -0.000000 225.098541 -826.208984
v -52.001221 225.098541 -826.208984
v -240.486572 225.098541 -826.209351
v -288.094482 225.098541 -826.209351
v -288.094482 192.461151 -826.209351
v -240.486572 192.461151 -826.209351
v -240.486572 225.098541 -37.833496
v -288.094482 225.098541 -37.833496
v -288.094482 192.461151 -37.833496
v -240.486572 192.461151 -37.833496
v -52.001221 0.000004 -37.833008
v -0.000000 0.000004 -37.833008
v 0.000000 0.000004 0.000000
v -52.001221 0.000004 0.000000
v -288.094482 0.000004 -37.833496
v -240.486572 0.000004 -37.833496
v -240.486572 0.000004 0.000000
v -288.094482 0.000004 0.000000
v -0.000000 0.000004 -865.967285
v -0.000000 0.000004 -826.208984
v -52.001221 0.000004 -826.208984
v -52.001221 0.000004 -865.967285
v -240.486572 0.000004 -826.209351
v -240.486572 0.000004 -865.967285
v -288.094482 0.000004 -826.209351
v -288.094482 0.000004 -865.967285
v -0.000000 341.196930 -37.843750
v -52.001221 341.196930 -37.843750
v -52.001221 341.196930 0.000000
v 0.000000 341.196930 0.000000
v -52.001221 341.196930 -865.967285
v -52.001221 341.196930 -826.208984
v -0.000000 341.196930 -826.208984
v -0.000000 341.196930 -865.967285
v -0.000000 504.220978 -37.843750
v -52.001221 504.220978 -37.843750
v -52.001221 504.220978 0.000000
v 0.000000 504.220978 0.000000
v -52.001221 504.220978 -865.967285
v -52.001221 504.220978 -826.208984
v -0.000000 504.220978 -826.208984
v -0.000000 504.220978 -865.967285
vt 0.294085 0.446639
vt 0.294085 0.382169
vt 0.296900 0.382169
vt 0.296900 0.446639
vt 0.811481 0.013626
vt 0.811481 0.001992
vt 0.814300 0.001992
vt 0.814300 0.013626
vt 0.063371 0.617829
vt 0.063371 0.553352
vt 0.066186 0.553352
vt 0.066186 0.617829
vt 0.820557 0.013632
vt 0.820557 0.001995
vt 0.823373 0.001995
vt 0.823373 0.013632
vt 0.125517 0.446639
vt 0.125517 0.382169
vt 0.137150 0.382169
vt 0.137150 0.446639
vt 0.143486 0.382169
vt 0.155123 0.382169
vt 0.155123 0.446639
vt 0.143486 0.446639
vt 0.662390 0.004814
vt 0.651742 0.004814
vt 0.651742 0.001992
vt 0.662390 0.001992
vt 0.072687 0.382169
vt 0.083335 0.382169
vt 0.083335 0.446639
vt 0.072687 0.446639
vt 0.847786 0.012647
vt 0.847786 0.001994
vt 0.850601 0.001994
vt 0.850601 0.012647
vt 0.197303 0.446639
vt 0.197303 0.382169
vt 0.207956 0.382169
vt 0.207956 0.446639
vt 0.662390 0.066469
vt 0.662390 0.063507
vt 0.704572 0.001992
vt 0.704572 0.004814
vt 0.704572 0.063507
vt 0.704572 0.066469
vt 0.722534 0.013632
vt 0.725494 0.013632
vt 0.784189 0.013632
vt 0.787005 0.013632
vt 0.787005 0.055812
vt 0.784189 0.055812
vt 0.725494 0.055812
vt 0.722534 0.055812
vt 0.725494 0.001995
vt 0.784189 0.001995
vt 0.004676 0.617829
vt 0.004676 0.553352
vt 0.716205 0.063507
vt 0.716205 0.004814
vt 0.829632 0.001995
vt 0.832592 0.001995
vt 0.832592 0.013632
vt 0.829632 0.013632
vt 0.001716 0.553352
vt 0.001716 0.617829
vt 0.838708 0.001992
vt 0.841668 0.001992
vt 0.841668 0.013626
vt 0.838708 0.013626
vt 0.651742 0.066469
vt 0.651742 0.063507
vt 0.232430 0.382169
vt 0.235390 0.382169
vt 0.235390 0.446639
vt 0.232430 0.446639
vt 0.856861 0.001994
vt 0.859820 0.001994
vt 0.859820 0.012647
vt 0.856861 0.012647
vt 0.725494 0.066465
vt 0.784189 0.066465
vt 0.314861 0.382169
vt 0.303224 0.382169
vt 0.303224 0.001994
vt 0.314861 0.001994
vt 0.066186 0.998008
vt 0.063371 0.998008
vt 0.125517 0.001994
vt 0.137150 0.001994
vt 0.324192 0.382169
vt 0.321376 0.382169
vt 0.321376 0.001994
vt 0.324192 0.001994
vt 0.341103 0.382169
vt 0.330449 0.382169
vt 0.330449 0.001994
vt 0.341103 0.001994
vt 0.348603 0.001999
vt 0.351419 0.001999
vt 0.351419 0.382177
vt 0.348603 0.382177
vt 0.072687 0.001994
vt 0.083335 0.001994
vt 0.294085 0.001994
vt 0.296900 0.001994
vt 0.004676 0.998008
vt 0.001716 0.998008
vt 0.369308 0.382169
vt 0.357675 0.382169
vt 0.357675 0.001994
vt 0.369308 0.001994
vt 0.378790 0.382169
vt 0.375830 0.382169
vt 0.375830 0.001994
vt 0.378790 0.001994
vt 0.143486 0.001994
vt 0.155123 0.001994
vt 0.384907 0.001999
vt 0.387866 0.001999
vt 0.387866 0.382177
vt 0.384907 0.382177
vt 0.404628 0.382169
vt 0.393979 0.382169
vt 0.393979 0.001994
vt 0.404628 0.001994
vt 0.232430 0.001994
vt 0.235390 0.001994
vt 0.197303 0.001994
vt 0.207956 0.001994
vt 0.615439 0.001995
vt 0.627075 0.001995
vt 0.627075 0.231328
vt 0.615439 0.231328
vt 0.214282 0.001995
vt 0.217097 0.001995
vt 0.217097 0.231328
vt 0.214279 0.231328
vt 0.137150 0.675972
vt 0.125517 0.675972
vt 0.063368 0.324023
vt 0.066186 0.324023
vt 0.223354 0.001995
vt 0.226313 0.001995
vt 0.226313 0.231328
vt 0.223354 0.231328
vt 0.633591 0.001995
vt 0.645225 0.001995
vt 0.645225 0.231328
vt 0.633591 0.231328
vt 0.001716 0.324023
vt 0.004676 0.324023
vt 0.155123 0.675972
vt 0.143486 0.675972
vt 0.804961 0.060685
vt 0.793327 0.060685
vt 0.793327 0.001992
vt 0.804961 0.001992
vt 0.412135 0.001995
vt 0.423772 0.001995
vt 0.423772 0.324023
vt 0.412135 0.324023
vt 0.217097 0.553356
vt 0.214279 0.553356
vt 0.137150 0.998000
vt 0.125517 0.998000
vt 0.063368 0.001999
vt 0.066186 0.001999
vt 0.226313 0.553356
vt 0.223354 0.553356
vt 0.430284 0.001995
vt 0.441918 0.001995
vt 0.441918 0.324023
vt 0.430284 0.324023
vt 0.001716 0.001999
vt 0.004676 0.001999
vt 0.155123 0.998000
vt 0.143486 0.998000
vt 0.448440 0.001995
vt 0.460077 0.001995
vt 0.460077 0.324023
vt 0.448440 0.324023
vt 0.466591 0.001995
vt 0.525282 0.001995
vt 0.525282 0.324023
vt 0.466591 0.324023
vt 0.531938 0.001995
vt 0.543571 0.001995
vt 0.543571 0.324023
vt 0.531938 0.324023
vt 0.608782 0.324023
vt 0.550090 0.324023
vt 0.550090 0.001999
vt 0.608782 0.001999
vn -1.000000 0.000000 0.000000
vn -1.000000 0.000000 0.000000
vn -1.000000 0.000000 0.000000
vn -1.000000 0.000000 0.000000
vn 0.000000 1.000000 0.000000
vn 0.000000 1.000000 0.000000
vn 0.000000 1.000000 0.000000
vn 0.000000 1.000000 0.000000
vn 1.000000 0.000000 -0.000000
vn 1.000000 0.000000 -0.000000
vn 1.000000 0.000000 -0.000000
vn 1.000000 0.000000 -0.000000
vn 0.000000 -1.000000 0.000000
vn 0.000000 -1.000000 0.000000
vn 0.000000 -1.000000 0.000000
vn 0.000000 -1.000000 0.000000
vn 0.000000 0.000000 1.000000
vn 0.000000 0.000000 1.000000
vn 0.000000 0.000000 1.000000
vn 0.000000 0.000000 1.000000
vn -0.000000 0.000000 -1.000000
vn -0.000000 0.000000 -1.000000
vn -0.000000 0.000000 -1.000000
vn -0.000000 0.000000 -1.000000
vn 0.000000 1.000000 0.000000
vn 0.000000 1.000000 0.000000
vn 0.000000 1.000000 0.000000
vn 0.000000 1.000000 0.000000
vn 0.000000 0.000000 1.000000
vn 0.000000 0.000000 1.000000
vn 0.000000 0.000000 1.000000
vn 0.000000 0.000000 1.000000
vn 0.000000 -1.000000 0.000000
vn 0.000000 -1.000000 0.000000
vn 0.000000 -1.000000 0.000000
vn 0.000000 -1.000000 0.000000
vn -0.000000 0.000000 -1.000000
vn -0.000000 0.000000 -1.000000
vn -0.000000 0.000000 -1.000000
vn -0.000000 0.000000 -1.000000
vn 0.000000 1.000000 0.000000
vn 0.000000 1.000000 0.000000
vn 0.000000 1.000000 0.000000
vn 0.000000 1.000000 0.000000
vn 0.000000 1.000000 0.000000
vn 0.000000 1.000000 0.000000
vn 0.000000 1.000000 0.000000
vn 0.000000 1.000000 0.000000
vn 0.000000 0.000000 1.000000
vn 0.000000 0.000000 1.000000
vn 0.000000 0.000000 1.000000
vn 0.000000 0.000000 1.000000
vn 0.000000 -1.000000 0.000000
vn 0.000000 -1.000000 0.000000
vn 0.000000 -1.000000 0.000000
vn 0.000000 -1.000000 0.000000
vn 0.000000 -1.000000 0.000000
vn 0.000000 -1.000000 0.000000
vn 0.000000 -1.000000 0.000000
vn 0.000000 -1.000000 0.000000
vn -0.000000 0.000000 -1.000000
vn -0.000000 0.000000 -1.000000
vn -0.000000 0.000000 -1.000000
vn -0.000000 0.000000 -1.000000
vn 0.000000 -1.000000 0.000000
vn 0.000000 -1.000000 0.000000
vn 0.000000 -1.000000 0.000000
vn 0.000000 -1.000000 0.000000
vn 1.000000 0.000000 -0.000000
vn 1.000000 0.000000 -0.000000
vn 1.000000 0.000000 -0.000000
vn 1.000000 0.000000 -0.000000
vn 0.000000 1.000000 0.000000
vn 0.000000 1.000000 0.000000
vn 0.000000 1.000000 0.000000
vn 0.000000 1.000000 0.000000
vn 0.000000 -1.000000 0.000000
vn 0.000000 -1.000000 0.000000
vn 0.000000 -1.000000 0.000000
vn 0.000000 -1.000000 0.000000
vn 1.000000 0.000000 -0.000000
vn 1.000000 0.000000 -0.000000
vn 1.000000 0.000000 -0.000000
vn 1.000000 0.000000 -0.000000
vn 0.000000 1.000000 0.000000
vn 0.000000 1.000000 0.000000
vn 0.000000 1.000000 0.000000
vn 0.000000 1.000000 0.000000
vn 0.000000 1.000000 0.000000
vn 0.000000 1.000000 0.000000
vn 0.000000 1.000000 0.000000
vn 0.000000 1.000000 0.000000
vn -1.000000 0.000000 0.000000
vn -1.000000 0.000000 0.000000
vn -1.000000 0.000000 0.000000
vn -1.000000 0.000000 0.000000
vn 0.000000 -1.000000 0.000000
vn 0.000000 -1.000000 0.000000
vn 0.000000 -1.000000 0.000000
vn 0.000000 -1.000000 0.000000
vn 0.000000 1.000000 0.000000
vn 0.000000 1.000000 0.000000
vn 0.000000 1.000000 0.000000
vn 0.000000 1.000000 0.000000
vn -1.000000 0.000000 0.000000
vn -1.000000 0.000000 0.000000
vn -1.000000 0.000000 0.000000
vn -1.000000 0.000000 0.000000
vn 0.000000 -1.000000 0.000000
vn 0.000000 -1.000000 0.000000
vn 0.000000 -1.000000 0.000000
vn 0.000000 -1.000000 0.000000
vn -0.000000 0.000000 -1.000000
vn -0.000000 0.000000 -1.000000
vn -0.000000 0.000000 -1.000000
vn -0.000000 0.000000 -1.000000
vn 1.000000 0.000000 -0.000000
vn 1.000000 0.000000 -0.000000
vn 1.000000 0.000000 -0.000000
vn 1.000000 0.000000 -0.000000
vn 0.000000 0.000000 1.000000
vn 0.000000 0.000000 1.000000
vn 0.000000 0.000000 1.000000
vn 0.000000 0.000000 1.000000
vn -1.000000 0.000000 0.000000
vn -1.000000 0.000000 0.000000
vn -1.000000 0.000000 0.000000
vn -1.000000 0.000000 0.000000
vn -0.000000 0.000000 -1.000000
vn -0.000000 0.000000 -1.000000
vn -0.000000 0.000000 -1.000000
vn -0.000000 0.000000 -1.000000
vn 1.000000 0.000000 -0.000000
vn 1.000000 0.000000 -0.000000
vn 1.000000 0.000000 -0.000000
vn 1.000000 0.000000 -0.000000
vn 0.000000 0.000000 1.000000
vn 0.000000 0.000000 1.000000
vn 0.000000 0.000000 1.000000
vn 0.000000 0.000000 1.000000
vn -1.000000 0.000000 0.000000
vn -1.000000 0.000000 0.000000
vn -1.000000 0.000000 0.000000
vn -1.000000 0.000000 0.000000
vn 1.000000 0.000000 -0.000000
vn 1.000000 0.000000 -0.000000
vn 1.000000 0.000000 -0.000000
vn 1.000000 0.000000 -0.000000
vn 0.000000 0.000000 1.000000
vn 0.000000 0.000000 1.000000
vn 0.000000 0.000000 1.000000
vn 0.000000 0.000000 1.000000
vn -1.000000 0.000000 0.000000
vn -1.000000 0.000000 0.000000
vn -1.000000 0.000000 0.000000
vn -1.000000 0.000000 0.000000
vn -0.000000 0.000000 -1.000000
vn -0.000000 0.000000 -1.000000
vn -0.000000 0.000000 -1.000000
vn -0.000000 0.000000 -1.000000
vn 1.000000 0.000000 -0.000000
vn 1.000000 0.000000 -0.000000
vn 1.000000 0.000000 -0.000000
vn 1.000000 0.000000 -0.000000
vn 0.000000 0.000000 1.000000
vn 0.000000 0.000000 1.000000
vn 0.000000 0.000000 1.000000
vn 0.000000 0.000000 1.000000
vn -1.000000 0.000000 0.000000
vn -1.000000 0.000000 0.000000
vn -1.000000 0.000000 0.000000
vn -1.000000 0.000000 0.000000
vn -0.000000 0.000000 -1.000000
vn -0.000000 0.000000 -1.000000
vn -0.000000 0.000000 -1.000000
vn -0.000000 0.000000 -1.000000
vn -0.000000 -0.000093 -1.000000
vn -0.000000 -0.000093 -1.000000
vn -0.000000 -0.000093 -1.000000
vn -0.000000 -0.000093 -1.000000
vn -1.000000 0.000000 0.000000
vn -1.000000 0.000000 0.000000
vn -1.000000 0.000000 0.000000
vn -1.000000 0.000000 0.000000
vn 0.000000 0.000000 1.000000
vn 0.000000 0.000000 1.000000
vn 0.000000 0.000000 1.000000
vn 0.000000 0.000000 1.000000
vn 1.000000 0.000000 -0.000000
vn 1.000000 0.000000 -0.000000
vn 1.000000 0.000000 -0.000000
vn 1.000000 0.000000 -0.000000
vn -1.000000 0.000000 0.000000
vn -1.000000 0.000000 0.000000
vn -1.000000 0.000000 0.000000
vn -1.000000 0.000000 0.000000
vn 0.000000 0.000000 1.000000
vn 0.000000 0.000000 1.000000
vn 0.000000 0.000000 1.000000
vn 0.000000 0.000000 1.000000
vn 1.000000 0.000000 -0.000000
vn 1.000000 0.000000 -0.000000
vn 1.000000 0.000000 -0.000000
vn 1.000000 0.000000 -0.000000
vn -0.000000 0.000000 -1.000000
vn -0.000000 0.000000 -1.000000
vn -0.000000 0.000000 -1.000000
vn -0.000000 0.000000 -1.000000
vn 0.000000 1.000000 0.000000
vn 0.000000 1.000000 0.000000
vn 0.000000 1.000000 0.000000
vn 0.000000 1.000000 0.000000
vn -0.000000 0.000000 -1.000000
vn -0.000000 0.000000 -1.000000
vn -0.000000 0.000000 -1.000000
vn -0.000000 0.000000 -1.000000
vn -1.000000 0.000000 0.000000
vn -1.000000 0.000000 0.000000
vn -1.000000 0.000000 0.000000
vn -1.000000 0.000000 0.000000
vn 0.000000 0.000000 1.000000
vn 0.000000 0.000000 1.000000
vn 0.000000 0.000000 1.000000
vn 0.000000 0.000000 1.000000
vn 1.000000 0.000000 -0.000000
vn 1.000000 0.000000 -0.000000
vn 1.000000 0.000000 -0.000000
vn 1.000000 0.000000 -0.000000
vn -1.000000 0.000000 0.000000
vn -1.000000 0.000000 0.000000
vn -1.000000 0.000000 0.000000
vn -1.000000 0.000000 0.000000
vn 0.000000 0.000000 1.000000
vn 0.000000 0.000000 1.000000
vn 0.000000 0.000000 1.000000
vn 0.000000 0.000000 1.000000
vn 1.000000 0.000000 -0.000000
vn 1.000000 0.000000 -0.000000
vn 1.000000 0.000000 -0.000000
vn 1.000000 0.000000 -0.000000
vn -0.000000 0.000000 -1.000000
vn -0.000000 0.000000 -1.000000
vn -0.000000 0.000000 -1.000000
vn -0.000000 0.000000 -1.000000
vn -0.000000 0.000000 -1.000000
vn -0.000000 0.000000 -1.000000
vn -0.000000 0.000000 -1.000000
vn -0.000000 0.000000 -1.000000
vn -1.000000 0.000000 0.000000
vn -1.000000 0.000000 0.000000
vn -1.000000 0.000000 0.000000
vn -1.000000 0.000000 0.000000
vn 0.000000 0.000000 1.000000
vn 0.000000 0.000000 1.000000
vn 0.000000 0.000000 1.000000
vn 0.000000 0.000000 1.000000
vn 1.000000 0.000000 -0.000000
vn 1.000000 0.000000 -0.000000
vn 1.000000 0.000000 -0.000000
vn 1.000000 0.000000 -0.000000
s off
f 30/1/1 31/2/2 2/3/3 4/4/4
f 57/5/5 58/6/6 59/7/7 60/8/8
f 18/9/9 19/10/10 6/11/11 8/12/12
f 33/13/13 34/14/14 35/15/15 36/16/16
f 14/17/17 15/18/18 8/19/19 6/20/20
f 7/21/21 16/22/22 13/23/23 5/24/24
f 29/25/25 30/26/26 4/27/27 10/28/28
f 2/29/29 11/30/30 10/31/31 4/32/32
f 37/33/33 38/34/34 39/35/35 40/36/36
f 9/37/37 12/38/38 1/39/39 3/40/40
f 9/41/41 25/42/42 29/25/43 10/28/44 14/43/45 20/44/46 24/45/47 13/46/48
f 10/31/49 11/30/50 15/18/51 14/17/52
f 16/47/53 21/48/54 17/49/55 15/50/56 11/51/57 32/52/58 28/53/59 12/54/60
f 13/23/61 16/22/62 12/38/63 9/37/64
f 21/48/65 22/55/66 18/56/67 17/49/68
f 22/57/69 23/58/70 19/10/71 18/9/72
f 23/59/73 24/45/74 20/44/75 19/60/76
f 41/61/77 42/62/78 43/63/79 44/64/80
f 5/65/81 23/58/82 22/57/83 7/66/84
f 61/67/85 62/68/86 63/69/87 64/70/88
f 3/71/89 26/72/90 25/42/91 9/41/92
f 1/73/93 27/74/94 26/75/95 3/76/96
f 46/77/97 45/78/98 47/79/99 48/80/100
f 25/42/101 26/72/102 30/26/103 29/25/104
f 26/75/105 27/74/106 31/2/107 30/1/108
f 27/81/109 28/53/110 32/52/111 31/82/112
f 17/83/113 18/84/114 34/85/115 33/86/116
f 18/9/117 8/12/118 35/87/119 34/88/120
f 8/19/121 15/18/122 36/89/123 35/90/124
f 15/91/125 17/92/126 33/93/127 36/94/128
f 31/95/129 32/96/130 38/97/131 37/98/132
f 32/99/133 11/100/134 39/101/135 38/102/136
f 11/30/137 2/29/138 40/103/139 39/104/140
f 2/3/141 31/2/142 37/105/143 40/106/144
f 7/66/145 22/57/146 42/107/147 41/108/148
f 22/109/149 21/110/150 43/111/151 42/112/152
f 21/113/153 16/114/154 44/115/155 43/116/156
f 16/22/157 7/21/158 41/117/159 44/118/160
f 12/119/161 28/120/162 45/121/163 46/122/164
f 28/123/165 27/124/166 47/125/167 45/126/168
f 27/74/169 1/73/170 48/127/171 47/128/172
f 1/39/173 12/38/174 46/129/175 48/130/176
f 19/131/177 20/132/178 50/133/179 49/134/180
f 20/135/181 14/136/182 51/137/183 50/138/184
f 14/17/185 6/20/186 52/139/187 51/140/188
f 6/11/189 19/10/190 49/141/191 52/142/192
f 13/143/193 24/144/194 54/145/195 53/146/196
f 24/147/197 23/148/198 55/149/199 54/150/200
f 23/58/201 5/65/202 56/151/203 55/152/204
f 5/24/205 13/23/206 53/153/207 56/154/208
f 63/155/209 62/156/210 58/157/211 57/158/212
f 49/159/213 50/160/214 58/161/215 57/162/216
f 50/138/217 51/137/218 59/163/219 58/164/220
f 51/140/221 52/139/222 60/165/223 59/166/224
f 52/142/225 49/141/226 57/167/227 60/168/228
f 53/146/229 54/145/230 62/169/231 61/170/232
f 54/171/233 55/172/234 63/173/235 62/174/236
f 55/152/237 56/151/238 64/175/239 63/176/240
f 56/154/241 53/153/242 61/177/243 64/178/244
f 55/179/245 54/180/246 62/181/247 63/182/248
f 54/183/249 50/184/250 58/185/251 62/186/252
f 50/187/253 49/188/254 57/189/255 58/190/256
f 49/191/257 55/192/258 63/193/259 57/194/260
