# This file uses centimeters as units for non-parametric coordinates.

v -87.307755 0.000000 -120.168312
v -228.580750 0.000000 -74.266403
v -228.580750 0.000000 74.270256
v -87.307755 0.000000 120.171684
v 0.000000 0.000000 0.000000
v -87.307755 27.985229 -120.168312
v -228.580750 27.985229 -74.266403
v -228.580750 27.985229 74.270256
v -87.307755 27.985229 120.171684
v 0.000000 27.985229 0.000000
v -126.359062 0.000000 0.000000
v -98.238457 27.985229 -88.297783
v -199.981995 27.985229 -54.571087
v -199.981995 27.985229 54.574463
v -98.238457 27.985229 88.297295
v -35.353424 27.985229 0.000000
v -98.238457 357.802399 -88.297783
v -199.981995 357.802399 -54.571087
v -199.981995 357.802399 54.574463
v -98.238457 357.802399 88.297295
v -35.353424 357.802399 0.000000
v -114.009361 357.802429 -37.772568
v -158.615189 357.802399 -23.285702
v -158.615189 357.802399 23.284256
v -114.009361 357.802429 37.770641
v -86.541382 357.802399 0.000000
v -114.009361 1322.427490 -37.773048
v -158.615189 1322.427246 -23.286182
v -158.615189 1322.427246 23.284256
v -114.009361 1322.427246 37.770161
v -86.541382 1322.427246 -0.000482
v -95.301178 1585.334229 -118.657738
v -235.445328 1585.333496 -73.147209
v -235.444366 1585.333496 73.150101
v -95.301178 1585.333496 118.655807
v -9.010429 1585.333496 0.000482
v -88.546486 1585.334473 -136.939362
v -253.057434 1585.333496 -84.396507
v -253.055511 1585.333496 84.396027
v -88.546486 1585.333496 136.936462
v 12.698662 1585.333496 0.000482
v -88.546486 1608.171143 -136.939362
v -253.057434 1608.170166 -84.396507
v -253.055511 1608.170166 84.396027
v -88.546486 1608.170166 136.936462
v 12.698662 1608.170166 0.000482
v -98.089035 1608.170898 -107.900558
v -228.227921 1608.170166 -66.570374
v -228.225983 1608.170166 66.570374
v -98.088074 1608.170166 107.901031
v -17.873367 1608.170166 0.000482
v -98.089035 1632.386230 -107.900558
v -228.227921 1632.385498 -66.570374
v -228.225983 1632.385498 66.570374
v -98.088074 1632.385498 107.901031
v -17.873367 1632.385498 0.000482
v -119.608223 1632.385498 -42.020878
v -172.166977 1632.385742 -26.069227
v -172.166016 1632.385254 26.070673
v -119.608223 1632.385254 42.023773
v -86.940475 1632.385742 0.000482
v -129.715683 1694.104736 -13.648194
v -145.698654 1694.104736 -8.523132
v -134.097992 1694.104736 0.003856
v -145.699615 1694.104980 8.526506
v -129.715683 1694.104736 13.652533
v -119.653534 1694.104736 0.001928
vt 0.435460 0.878314
vt 0.435460 0.972051
vt 0.416891 0.972051
vt 0.416891 0.878314
vt 0.041682 0.918941
vt 0.041682 0.820384
vt 0.060251 0.820384
vt 0.060251 0.918941
vt 0.392326 0.972052
vt 0.392326 0.878314
vt 0.410895 0.878314
vt 0.410895 0.972052
vt 0.392326 0.820384
vt 0.410895 0.820384
vt 0.435460 0.820384
vt 0.416891 0.820384
vt 0.599121 0.255190
vt 0.692858 0.224733
vt 0.666947 0.304467
vt 0.599121 0.353747
vt 0.692858 0.384203
vt 0.750788 0.304467
vt 0.149891 0.959574
vt 0.139286 0.956173
vt 0.146984 0.950515
vt 0.139286 0.944861
vt 0.149891 0.941459
vt 0.156568 0.950517
vt 0.535194 0.384204
vt 0.441456 0.353747
vt 0.460432 0.340679
vt 0.527941 0.363057
vt 0.441456 0.255190
vt 0.460432 0.268258
vt 0.535194 0.224733
vt 0.527941 0.245883
vt 0.593124 0.304470
vt 0.569667 0.304470
vt 0.488710 0.220832
vt 0.421202 0.220832
vt 0.421202 0.001992
vt 0.488710 0.001992
vt 0.537397 0.001992
vt 0.609817 0.001992
vt 0.609817 0.220832
vt 0.537397 0.220832
vt 0.617400 0.001992
vt 0.684909 0.001992
vt 0.684909 0.220832
vt 0.617400 0.220832
vt 0.726634 0.001992
vt 0.726634 0.220832
vt 0.530436 0.220832
vt 0.530436 0.001992
vt 0.154905 0.937558
vt 0.087397 0.915180
vt 0.114844 0.894421
vt 0.144441 0.904034
vt 0.087397 0.842760
vt 0.114844 0.863521
vt 0.154905 0.820384
vt 0.144441 0.853909
vt 0.196631 0.878971
vt 0.162667 0.878971
vt 0.082522 0.816483
vt 0.052925 0.816483
vt 0.052925 0.176436
vt 0.082522 0.176436
vt 0.191418 0.001992
vt 0.222318 0.001992
vt 0.222318 0.642039
vt 0.191418 0.642039
vt 0.314078 0.001992
vt 0.343675 0.001992
vt 0.343675 0.642039
vt 0.314078 0.642039
vt 0.361900 0.001992
vt 0.361900 0.642039
vt 0.100748 0.816483
vt 0.100748 0.176436
vt 0.001947 0.001993
vt 0.094935 0.001992
vt 0.255405 0.816483
vt 0.158334 0.816483
vt 0.356088 0.816483
vt 0.263100 0.816483
vt 0.413343 0.816483
vt 0.152191 0.001993
vt 0.838269 0.014122
vt 0.745281 0.044319
vt 0.733595 0.036855
vt 0.842751 0.001992
vt 0.745282 0.141391
vt 0.733596 0.148852
vt 0.838269 0.171584
vt 0.842751 0.183714
vt 0.895525 0.092854
vt 0.909929 0.092854
vt 0.793086 0.254793
vt 0.793087 0.363949
vt 0.777935 0.363949
vt 0.777934 0.254793
vt 0.066248 0.932381
vt 0.066248 0.820384
vt 0.081400 0.820384
vt 0.081400 0.932381
vt 0.756785 0.363948
vt 0.756785 0.254793
vt 0.771937 0.254793
vt 0.771937 0.363948
vt 0.756785 0.187615
vt 0.771937 0.187615
vt 0.793087 0.187615
vt 0.777935 0.187615
vt 0.908240 0.369337
vt 0.799084 0.334474
vt 0.815558 0.322646
vt 0.901908 0.350069
vt 0.799085 0.222477
vt 0.815560 0.234304
vt 0.908240 0.187615
vt 0.901909 0.206881
vt 0.975418 0.278475
vt 0.955133 0.278475
vt 0.240758 0.873608
vt 0.240759 0.959958
vt 0.224691 0.959958
vt 0.224691 0.873608
vt 0.019619 0.908726
vt 0.019619 0.820384
vt 0.035686 0.820384
vt 0.035686 0.908726
vt 0.202627 0.959957
vt 0.202627 0.873608
vt 0.218694 0.873608
vt 0.218694 0.959957
vt 0.202627 0.820384
vt 0.218694 0.820384
vt 0.240759 0.820384
vt 0.224691 0.820384
vt 0.333105 0.963572
vt 0.246755 0.936149
vt 0.283953 0.909276
vt 0.318826 0.919860
vt 0.246757 0.847807
vt 0.283953 0.874680
vt 0.333106 0.820384
vt 0.318826 0.864095
vt 0.386330 0.891978
vt 0.340502 0.891978
vt 0.042899 0.944518
vt 0.042899 0.979392
vt 0.001947 0.961829
vt 0.001947 0.951224
vt 0.097379 0.941460
vt 0.131975 0.941459
vt 0.120334 0.982411
vt 0.109021 0.982411
vt 0.049758 0.998008
vt 0.049758 0.963135
vt 0.090710 0.969841
vt 0.090711 0.980447
vt 0.049759 0.941459
vt 0.090710 0.963165
vt 0.042899 0.922842
vt 0.001947 0.944548
vn -0.309014 0.000000 -0.951057
vn -0.309014 0.000000 -0.951057
vn -0.309014 0.000000 -0.951057
vn -0.309014 0.000000 -0.951057
vn -1.000000 0.000000 0.000000
vn -1.000000 0.000000 0.000000
vn -1.000000 0.000000 0.000000
vn -1.000000 0.000000 0.000000
vn -0.309011 0.000000 0.951058
vn -0.309011 0.000000 0.951058
vn -0.309011 0.000000 0.951058
vn -0.309011 0.000000 0.951058
vn 0.809025 0.000000 0.587775
vn 0.809025 0.000000 0.587775
vn 0.809025 0.000000 0.587775
vn 0.809025 0.000000 0.587775
vn 0.809017 0.000000 -0.587786
vn 0.809017 0.000000 -0.587786
vn 0.809017 0.000000 -0.587786
vn 0.809017 0.000000 -0.587786
vn 0.000000 -1.000000 -0.000001
vn 0.000000 -1.000000 -0.000001
vn 0.000000 -1.000000 0.000000
vn 0.000000 -1.000000 0.000001
vn 0.000000 -1.000000 -0.000001
vn 0.000000 -1.000000 0.000000
vn 0.000000 -1.000000 0.000001
vn 0.000000 -1.000000 0.000001
vn 0.000000 -1.000000 0.000000
vn 0.000000 -1.000000 0.000000
vn 0.000000 -1.000000 0.000001
vn 0.000000 -1.000000 0.000000
vn 0.000000 -1.000000 -0.000001
vn 0.000000 -1.000000 0.000000
vn 0.000000 -1.000000 0.000000
vn -0.000003 1.000000 0.000007
vn 0.000009 1.000000 0.000003
vn 0.000003 1.000000 -0.000002
vn 0.000009 1.000000 0.000003
vn 0.000014 1.000000 -0.000015
vn 0.000003 1.000000 -0.000002
vn 0.000014 1.000000 -0.000015
vn 0.000002 1.000000 -0.000007
vn 0.000003 1.000000 -0.000002
vn 0.000002 1.000000 -0.000007
vn -0.000008 1.000000 0.000002
vn 0.000003 1.000000 -0.000002
vn -0.000008 1.000000 0.000002
vn -0.000003 1.000000 0.000007
vn 0.000003 1.000000 -0.000002
vn 0.000000 1.000000 0.000001
vn 0.000000 1.000000 0.000001
vn 0.000000 1.000000 0.000002
vn 0.000000 1.000000 0.000001
vn 0.000000 1.000000 0.000001
vn 0.000000 1.000000 -0.000001
vn 0.000000 1.000000 -0.000001
vn 0.000000 1.000000 0.000002
vn 0.000000 1.000000 -0.000001
vn 0.000000 1.000000 0.000000
vn 0.000000 1.000000 0.000000
vn 0.000000 1.000000 -0.000001
vn 0.000000 1.000000 0.000000
vn 0.000000 1.000000 0.000001
vn 0.000000 1.000000 0.000001
vn 0.000000 1.000000 0.000000
vn 0.000000 1.000000 0.000001
vn 0.000000 1.000000 0.000001
vn 0.000000 1.000000 0.000001
vn 0.000000 1.000000 0.000001
vn -0.314650 0.000000 -0.949208
vn -0.314650 0.000000 -0.949208
vn -0.314650 0.000000 -0.949208
vn -0.314650 0.000000 -0.949208
vn -1.000000 0.000000 0.000000
vn -1.000000 0.000000 0.000000
vn -1.000000 0.000000 0.000000
vn -1.000000 0.000000 0.000000
vn -0.314618 0.000000 0.949218
vn -0.314618 0.000000 0.949218
vn -0.314618 0.000000 0.949218
vn -0.314618 0.000000 0.949218
vn 0.814538 0.000000 0.580111
vn 0.814538 0.000000 0.580111
vn 0.814538 0.000000 0.580111
vn 0.814538 0.000000 0.580111
vn 0.814539 0.000000 -0.580109
vn 0.814539 0.000000 -0.580109
vn 0.814539 0.000000 -0.580109
vn 0.814539 0.000000 -0.580109
vn 0.000000 1.000000 0.000000
vn 0.000000 1.000000 0.000000
vn 0.000000 1.000000 0.000000
vn 0.000000 1.000000 0.000000
vn 0.000000 1.000000 0.000000
vn 0.000000 1.000000 0.000000
vn 0.000000 1.000000 0.000000
vn 0.000000 1.000000 0.000000
vn 0.000000 1.000000 0.000000
vn 0.000000 1.000000 0.000000
vn 0.000000 1.000000 0.000000
vn 0.000000 1.000000 0.000000
vn 0.000000 1.000000 0.000000
vn 0.000000 1.000000 0.000000
vn 0.000000 1.000000 0.000000
vn 0.000000 1.000000 0.000000
vn 0.000000 1.000000 0.000000
vn 0.000000 1.000000 0.000000
vn 0.000000 1.000000 0.000000
vn 0.000000 1.000000 0.000000
vn -0.308893 0.000000 -0.951097
vn -0.308893 0.000000 -0.951097
vn -0.307177 -0.104971 -0.945845
vn -0.307239 -0.103067 -0.946035
vn -1.000000 0.000000 0.000000
vn -1.000000 0.000000 0.000000
vn -0.993693 -0.112135 0.000002
vn -0.993693 -0.112134 0.000002
vn -0.308879 0.000000 0.951101
vn -0.308879 0.000000 0.951101
vn -0.307221 -0.103069 0.946040
vn -0.307159 -0.104974 0.945851
vn 0.808752 0.000000 0.588150
vn 0.808752 0.000000 0.588150
vn 0.805374 -0.091296 0.585694
vn 0.805299 -0.092300 0.585640
vn 0.808766 0.000000 -0.588130
vn 0.808766 0.000000 -0.588130
vn 0.805311 -0.092299 -0.585624
vn 0.805386 -0.091294 -0.585678
vn -0.307239 -0.103067 -0.946035
vn -0.307177 -0.104971 -0.945845
vn -0.298143 -0.261240 -0.918077
vn -0.298143 -0.261240 -0.918077
vn -0.993693 -0.112134 0.000002
vn -0.993693 -0.112135 0.000002
vn -0.959854 -0.280500 0.000005
vn -0.959854 -0.280500 0.000005
vn -0.307159 -0.104974 0.945851
vn -0.307221 -0.103069 0.946040
vn -0.298119 -0.261248 0.918082
vn -0.298119 -0.261248 0.918082
vn 0.805299 -0.092300 0.585640
vn 0.805374 -0.091296 0.585694
vn 0.786685 -0.231995 0.572106
vn 0.786685 -0.231995 0.572106
vn 0.805386 -0.091294 -0.585678
vn 0.805311 -0.092299 -0.585624
vn 0.786693 -0.231991 -0.572096
vn 0.786693 -0.231991 -0.572096
vn 0.000003 -1.000000 -0.000008
vn 0.000001 -1.000000 -0.000004
vn 0.000001 -1.000000 -0.000003
vn 0.000003 -1.000000 -0.000008
vn 0.000001 -1.000000 -0.000004
vn 0.000000 -1.000000 -0.000001
vn 0.000000 -1.000000 -0.000001
vn 0.000001 -1.000000 -0.000003
vn 0.000000 -1.000000 -0.000001
vn 0.000000 -1.000000 0.000001
vn 0.000000 -1.000000 0.000001
vn 0.000000 -1.000000 -0.000001
vn 0.000000 -1.000000 0.000001
vn 0.000001 -1.000000 -0.000003
vn 0.000001 -1.000000 -0.000003
vn 0.000000 -1.000000 0.000001
vn 0.000001 -1.000000 -0.000003
vn 0.000003 -1.000000 -0.000008
vn 0.000003 -1.000000 -0.000008
vn 0.000001 -1.000000 -0.000003
vn -0.304247 0.000000 -0.952593
vn -0.304247 0.000000 -0.952593
vn -0.304247 0.000000 -0.952593
vn -0.304247 0.000000 -0.952593
vn -1.000000 0.000000 0.000011
vn -1.000000 0.000000 0.000011
vn -1.000000 0.000000 0.000011
vn -1.000000 0.000000 0.000011
vn -0.304238 0.000000 0.952596
vn -0.304238 0.000000 0.952596
vn -0.304238 0.000000 0.952596
vn -0.304238 0.000000 0.952596
vn 0.804088 0.000000 0.594511
vn 0.804088 0.000000 0.594511
vn 0.804088 0.000000 0.594511
vn 0.804088 0.000000 0.594511
vn 0.804096 0.000000 -0.594500
vn 0.804096 0.000000 -0.594500
vn 0.804096 0.000000 -0.594500
vn 0.804096 0.000000 -0.594500
vn -0.000002 1.000000 0.000007
vn -0.000002 1.000000 0.000003
vn -0.000002 1.000000 0.000003
vn -0.000002 1.000000 0.000007
vn -0.000002 1.000000 0.000003
vn 0.000000 1.000000 0.000000
vn 0.000000 1.000000 0.000000
vn -0.000002 1.000000 0.000003
vn 0.000000 1.000000 0.000000
vn 0.000000 1.000000 0.000000
vn 0.000000 1.000000 0.000000
vn 0.000000 1.000000 0.000000
vn 0.000000 1.000000 0.000000
vn 0.000000 1.000000 0.000003
vn 0.000000 1.000000 0.000003
vn 0.000000 1.000000 0.000000
vn 0.000000 1.000000 0.000003
vn -0.000002 1.000000 0.000007
vn -0.000002 1.000000 0.000007
vn 0.000000 1.000000 0.000003
vn -0.302687 0.000000 -0.953090
vn -0.302687 0.000000 -0.953090
vn -0.302687 0.000000 -0.953090
vn -0.302687 0.000000 -0.953090
vn -1.000000 0.000000 0.000014
vn -1.000000 0.000000 0.000014
vn -1.000000 0.000000 0.000014
vn -1.000000 0.000000 0.000014
vn -0.302693 0.000000 0.953088
vn -0.302693 0.000000 0.953088
vn -0.302693 0.000000 0.953088
vn -0.302693 0.000000 0.953088
vn 0.802530 0.000000 0.596612
vn 0.802530 0.000000 0.596612
vn 0.802530 0.000000 0.596612
vn 0.802530 0.000000 0.596612
vn 0.802528 0.000000 -0.596615
vn 0.802528 0.000000 -0.596615
vn 0.802528 0.000000 -0.596615
vn 0.802528 0.000000 -0.596615
vn -0.000002 1.000000 0.000007
vn 0.000000 1.000000 0.000005
vn 0.000000 1.000000 0.000005
vn -0.000002 1.000000 0.000007
vn 0.000000 1.000000 0.000005
vn 0.000001 1.000000 0.000000
vn 0.000001 1.000000 0.000000
vn 0.000000 1.000000 0.000005
vn 0.000001 1.000000 0.000000
vn 0.000000 1.000000 -0.000001
vn 0.000000 1.000000 -0.000001
vn 0.000001 1.000000 0.000000
vn 0.000000 1.000000 -0.000001
vn -0.000002 1.000000 0.000003
vn -0.000002 1.000000 0.000003
vn 0.000000 1.000000 -0.000001
vn -0.000002 1.000000 0.000003
vn -0.000002 1.000000 0.000007
vn -0.000002 1.000000 0.000007
vn -0.000002 1.000000 0.000003
vn -0.273410 0.366994 -0.889136
vn -0.273410 0.366994 -0.889136
vn -0.273410 0.366994 -0.889136
vn -0.273410 0.366994 -0.889136
vn -0.919058 0.394123 0.000002
vn -0.919058 0.394123 0.000002
vn -0.919058 0.394123 0.000002
vn -0.919058 0.394123 0.000002
vn -0.273442 0.366969 0.889136
vn -0.273442 0.366969 0.889136
vn -0.273442 0.366969 0.889136
vn -0.273442 0.366969 0.889136
vn 0.732664 0.383398 0.562326
vn 0.732664 0.383398 0.562326
vn 0.732664 0.383398 0.562326
vn 0.732664 0.383398 0.562326
vn 0.732647 0.383415 -0.562336
vn 0.732647 0.383415 -0.562336
vn 0.732647 0.383415 -0.562336
vn 0.732647 0.383415 -0.562336
s off
f 1/1/1 2/2/2 7/3/3 6/4/4
f 2/5/5 3/6/6 8/7/7 7/8/8
f 3/9/9 4/10/10 9/11/11 8/12/12
f 4/10/13 5/13/14 10/14/15 9/11/16
f 5/15/17 1/1/18 6/4/19 10/16/20
f 2/17/21 1/18/22 11/19/23
f 3/20/24 2/17/25 11/19/26
f 4/21/27 3/20/28 11/19/29
f 5/22/30 4/21/31 11/19/32
f 1/18/33 5/22/34 11/19/35
f 62/23/36 63/24/37 64/25/38
f 63/24/39 65/26/40 64/25/41
f 65/26/42 66/27/43 64/25/44
f 66/27/45 67/28/46 64/25/47
f 67/28/48 62/23/49 64/25/50
f 6/29/51 7/30/52 13/31/53 12/32/54
f 7/30/55 8/33/56 14/34/57 13/31/58
f 8/33/59 9/35/60 15/36/61 14/34/62
f 9/35/63 10/37/64 16/38/65 15/36/66
f 10/37/67 6/29/68 12/32/69 16/38/70
f 12/39/71 13/40/72 18/41/73 17/42/74
f 13/43/75 14/44/76 19/45/77 18/46/78
f 14/47/79 15/48/80 20/49/81 19/50/82
f 15/48/83 16/51/84 21/52/85 20/49/86
f 16/53/87 12/39/88 17/42/89 21/54/90
f 17/55/91 18/56/92 23/57/93 22/58/94
f 18/56/95 19/59/96 24/60/97 23/57/98
f 19/59/99 20/61/100 25/62/101 24/60/102
f 20/61/103 21/63/104 26/64/105 25/62/106
f 21/63/107 17/55/108 22/58/109 26/64/110
f 22/65/111 23/66/112 28/67/113 27/68/114
f 23/69/115 24/70/116 29/71/117 28/72/118
f 24/73/119 25/74/120 30/75/121 29/76/122
f 25/74/123 26/77/124 31/78/125 30/75/126
f 26/79/127 22/65/128 27/68/129 31/80/130
f 27/68/131 28/67/132 33/81/133 32/82/134
f 28/72/135 29/71/136 34/83/137 33/84/138
f 29/76/139 30/75/140 35/85/141 34/86/142
f 30/75/143 31/78/144 36/87/145 35/85/146
f 31/80/147 27/68/148 32/82/149 36/88/150
f 32/89/151 33/90/152 38/91/153 37/92/154
f 33/90/155 34/93/156 39/94/157 38/91/158
f 34/93/159 35/95/160 40/96/161 39/94/162
f 35/95/163 36/97/164 41/98/165 40/96/166
f 36/97/167 32/89/168 37/92/169 41/98/170
f 37/99/171 38/100/172 43/101/173 42/102/174
f 38/103/175 39/104/176 44/105/177 43/106/178
f 39/107/179 40/108/180 45/109/181 44/110/182
f 40/108/183 41/111/184 46/112/185 45/109/186
f 41/113/187 37/99/188 42/102/189 46/114/190
f 42/115/191 43/116/192 48/117/193 47/118/194
f 43/116/195 44/119/196 49/120/197 48/117/198
f 44/119/199 45/121/200 50/122/201 49/120/202
f 45/121/203 46/123/204 51/124/205 50/122/206
f 46/123/207 42/115/208 47/118/209 51/124/210
f 47/125/211 48/126/212 53/127/213 52/128/214
f 48/129/215 49/130/216 54/131/217 53/132/218
f 49/133/219 50/134/220 55/135/221 54/136/222
f 50/134/223 51/137/224 56/138/225 55/135/226
f 51/139/227 47/125/228 52/128/229 56/140/230
f 52/141/231 53/142/232 58/143/233 57/144/234
f 53/142/235 54/145/236 59/146/237 58/143/238
f 54/145/239 55/147/240 60/148/241 59/146/242
f 55/147/243 56/149/244 61/150/245 60/148/246
f 56/149/247 52/141/248 57/144/249 61/150/250
f 57/151/251 58/152/252 63/153/253 62/154/254
f 58/155/255 59/156/256 65/157/257 63/158/258
f 59/159/259 60/160/260 66/161/261 65/162/262
f 60/160/263 61/163/264 67/164/265 66/161/266
f 61/165/267 57/151/268 62/154/269 67/166/270
