# This file uses centimeters as units for non-parametric coordinates.

v 100.585739 -159.101134 -128.926834
v -35.898619 -158.557462 -160.073769
v -145.350579 -160.080795 -72.802046
v -145.350588 -162.524033 67.170944
v -35.898634 -164.047367 154.442680
v 100.585729 -163.503695 123.295765
v 161.326985 -161.302414 -2.815544
v 0.000000 161.302414 2.815544
vt 0.655872 0.054542
vt 0.444370 0.006268
vt 0.274758 0.141529
vt 0.274758 0.358471
vt 0.444370 0.493732
vt 0.655872 0.445458
vt 0.750000 0.250000
vt 0.250000 0.500000
vt 0.321429 0.500000
vt 0.392857 0.500000
vt 0.464286 0.500000
vt 0.535714 0.500000
vt 0.607143 0.500000
vt 0.678571 0.500000
vt 0.750000 0.500000
vt 0.500000 1.000000
vn 0.000000 -0.999848 -0.017452
vn 0.000000 -0.999848 -0.017452
vn 0.000000 -0.999848 -0.017452
vn 0.000000 -0.999848 -0.017452
vn 0.000000 -0.999848 -0.017452
vn 0.000000 -0.999848 -0.017452
vn 0.000000 -0.999848 -0.017452
vn 0.202885 0.426183 -0.881593
vn 0.202885 0.426183 -0.881593
vn 0.202885 0.426183 -0.881593
vn -0.568471 0.423110 -0.705563
vn -0.568471 0.423110 -0.705563
vn -0.568471 0.423110 -0.705563
vn -0.911756 0.410669 0.007168
vn -0.911756 0.410669 0.007168
vn -0.911756 0.410669 0.007168
vn -0.568471 0.398229 0.719899
vn -0.568471 0.398229 0.719899
vn -0.568471 0.398229 0.719899
vn 0.202885 0.395156 0.895929
vn 0.202885 0.395156 0.895929
vn 0.202885 0.395156 0.895929
vn 0.821464 0.403765 0.402704
vn 0.821464 0.403765 0.402704
vn 0.821464 0.403765 0.402704
vn 0.821464 0.417573 -0.388368
vn 0.821464 0.417573 -0.388368
vn 0.821464 0.417573 -0.388368
s off
f 1/1/1 7/7/2 6/6/3 5/5/4 4/4/5 3/3/6 2/2/7
f 1/8/8 2/9/9 8/16/10
f 2/9/11 3/10/12 8/16/13
f 3/10/14 4/11/15 8/16/16
f 4/11/17 5/12/18 8/16/19
f 5/12/20 6/13/21 8/16/22
f 6/13/23 7/14/24 8/16/25
f 7/14/26 1/15/27 8/16/28
