# This file uses centimeters as units for non-parametric coordinates.

v -159.433501 87.102289 -166.905848
v -203.987787 87.102289 -108.007343
v -204.341849 160.747946 -200.877158
v -248.896140 160.747946 -141.978646
v 192.755681 160.747957 99.510743
v 148.201390 160.747946 158.409220
v 192.755692 87.102289 99.510728
v 148.201413 87.102289 158.409190
v 193.918507 187.992324 100.390349
v 149.364221 187.992324 159.288854
v 267.163522 87.102289 248.399229
v 310.940361 87.102289 188.912571
v -204.341849 13.456610 -200.877158
v -248.896135 13.456610 -141.978653
v 192.755698 13.456610 99.510720
v 148.201390 13.456610 158.409220
v 193.918507 -13.787769 100.390349
v 149.364221 -13.787769 159.288854
v -110.808332 13.456610 -37.520926
v -66.254029 13.456616 -96.419438
v -64.056966 13.456610 -2.155431
v -19.502665 13.456610 -61.053948
v 18.895730 13.456610 60.594833
v 63.450033 13.456610 1.696323
v 65.647129 13.456610 95.960335
v 110.201438 13.456610 37.061818
v -110.808332 -132.679962 -37.520926
v -66.254035 -132.679962 -96.419446
v -19.502662 -132.679962 -61.053952
v -64.056949 -132.679962 -2.155454
v 18.895730 -132.679962 60.594833
v 63.450027 -132.679962 1.696331
v 110.201426 -132.679962 37.061833
v 65.647129 -132.679962 95.960335
vt 0.375000 0.000000
vt 0.625000 0.000000
vt 0.375000 0.250000
vt 0.625000 0.250000
vt 0.375000 0.500000
vt 0.625000 0.500000
vt 0.375000 0.750000
vt 0.625000 0.750000
vt 0.875000 0.000000
vt 0.875000 0.250000
vt 0.125000 0.000000
vt 0.125000 0.250000
vt 0.375000 0.500000
vt 0.625000 0.500000
vt 0.625000 0.687500
vt 0.375000 0.687500
vt 0.375000 0.000000
vt 0.625000 0.000000
vt 0.625000 0.250000
vt 0.375000 0.250000
vt 0.625000 0.500000
vt 0.375000 0.500000
vt 0.875000 0.000000
vt 0.875000 0.250000
vt 0.125000 0.000000
vt 0.125000 0.250000
vt 0.625000 0.500000
vt 0.375000 0.500000
vt 0.625000 0.750000
vt 0.625000 0.687500
vt 0.375000 0.750000
vt 0.375000 0.687500
vt 0.675000 0.250000
vt 0.625000 0.300000
vt 0.375000 0.300000
vt 0.325000 0.250000
vt 0.725000 0.250000
vt 0.625000 0.350000
vt 0.375000 0.350000
vt 0.275000 0.250000
vt 0.775000 0.250000
vt 0.625000 0.400000
vt 0.375000 0.400000
vt 0.225000 0.250000
vt 0.825000 0.250000
vt 0.625000 0.450000
vt 0.375000 0.450000
vt 0.175000 0.250000
vt 0.625000 0.300000
vt 0.375000 0.300000
vt 0.375000 0.350000
vt 0.625000 0.350000
vt 0.625000 0.400000
vt 0.375000 0.400000
vt 0.375000 0.450000
vt 0.625000 0.450000
vn -0.633547 -0.607400 -0.479252
vn -0.633547 -0.607400 -0.479252
vn -0.633547 -0.607400 -0.479252
vn -0.633547 -0.607400 -0.479252
vn -0.000000 1.000000 0.000000
vn -0.000000 1.000000 0.000000
vn -0.000000 1.000000 0.000000
vn -0.000000 1.000000 0.000000
vn -0.603292 -0.000000 0.797521
vn -0.603292 -0.000000 0.797521
vn -0.603292 -0.000000 0.797521
vn -0.603292 -0.000000 0.797521
vn 0.603292 0.000000 -0.797521
vn 0.603292 0.000000 -0.797521
vn 0.603292 0.000000 -0.797521
vn 0.603292 0.000000 -0.797521
vn -0.796381 0.053441 -0.602429
vn -0.796381 0.053441 -0.602429
vn -0.796381 0.053441 -0.602429
vn -0.796381 0.053441 -0.602429
vn -0.603292 -0.000000 0.797520
vn -0.603292 -0.000000 0.797520
vn -0.603292 -0.000000 0.797520
vn -0.603292 -0.000000 0.797520
vn 0.603292 0.000000 -0.797521
vn 0.603292 0.000000 -0.797521
vn 0.603292 0.000000 -0.797521
vn 0.603292 0.000000 -0.797521
vn 0.453084 0.824881 0.338061
vn 0.453084 0.824881 0.338061
vn 0.453085 0.824881 0.338061
vn 0.453085 0.824881 0.338061
vn -0.633547 0.607400 -0.479252
vn -0.633547 0.607400 -0.479252
vn -0.633547 0.607400 -0.479252
vn -0.633547 0.607400 -0.479252
vn -0.000000 -1.000000 -0.000000
vn -0.000000 -1.000000 -0.000000
vn -0.000000 -1.000000 -0.000000
vn -0.000000 -1.000000 -0.000000
vn -0.603292 0.000000 0.797521
vn -0.603292 0.000000 0.797521
vn -0.603292 0.000000 0.797521
vn -0.603292 0.000000 0.797521
vn -0.603292 0.000000 0.797521
vn -0.603292 0.000000 0.797521
vn -0.603292 0.000000 0.797521
vn -0.603292 0.000000 0.797521
vn 0.603292 0.000000 -0.797521
vn 0.603292 0.000000 -0.797521
vn 0.603292 0.000000 -0.797521
vn 0.603292 0.000000 -0.797521
vn 0.603292 0.000000 -0.797521
vn 0.603292 0.000000 -0.797521
vn 0.603292 0.000000 -0.797521
vn 0.603292 0.000000 -0.797521
vn -0.796381 -0.053441 -0.602429
vn -0.796381 -0.053441 -0.602429
vn -0.796381 -0.053441 -0.602429
vn -0.796381 -0.053441 -0.602429
vn -0.603292 0.000000 0.797520
vn -0.603292 0.000000 0.797520
vn -0.603292 0.000000 0.797520
vn -0.603292 0.000000 0.797520
vn 0.603292 -0.000000 -0.797521
vn 0.603292 -0.000000 -0.797521
vn 0.603292 -0.000000 -0.797521
vn 0.603292 -0.000000 -0.797521
vn 0.453085 -0.824881 0.338062
vn 0.453085 -0.824881 0.338062
vn 0.453085 -0.824881 0.338062
vn 0.453085 -0.824881 0.338062
vn 0.000000 -1.000000 -0.000000
vn 0.000000 -1.000000 -0.000000
vn 0.000000 -1.000000 -0.000000
vn 0.000000 -1.000000 -0.000000
vn -0.000000 -1.000000 -0.000000
vn -0.000000 -1.000000 -0.000000
vn -0.000000 -1.000000 -0.000000
vn -0.000000 -1.000000 -0.000000
vn -0.000000 -1.000000 -0.000000
vn -0.000000 -1.000000 -0.000000
vn -0.000000 -1.000000 -0.000000
vn -0.000000 -1.000000 -0.000000
vn -0.000000 -1.000000 0.000000
vn -0.000000 -1.000000 0.000000
vn -0.000000 -1.000000 0.000000
vn -0.000000 -1.000000 0.000000
vn -0.797521 0.000000 -0.603291
vn -0.797521 0.000000 -0.603291
vn -0.797521 0.000000 -0.603291
vn -0.797521 0.000000 -0.603291
vn 0.603292 0.000000 -0.797521
vn 0.603292 0.000000 -0.797521
vn 0.603292 0.000000 -0.797521
vn 0.603292 0.000000 -0.797521
vn 0.797521 -0.000000 0.603292
vn 0.797521 -0.000000 0.603292
vn 0.797521 -0.000000 0.603292
vn 0.797521 -0.000000 0.603292
vn -0.603292 -0.000000 0.797521
vn -0.603292 -0.000000 0.797521
vn -0.603292 -0.000000 0.797521
vn -0.603292 -0.000000 0.797521
vn -0.797521 -0.000000 -0.603292
vn -0.797521 -0.000000 -0.603292
vn -0.797521 -0.000000 -0.603292
vn -0.797521 -0.000000 -0.603292
vn 0.603291 -0.000000 -0.797521
vn 0.603291 -0.000000 -0.797521
vn 0.603291 -0.000000 -0.797521
vn 0.603291 -0.000000 -0.797521
vn 0.797521 0.000000 0.603292
vn 0.797521 0.000000 0.603292
vn 0.797521 0.000000 0.603292
vn 0.797521 0.000000 0.603292
vn -0.603292 0.000000 0.797521
vn -0.603292 0.000000 0.797521
vn -0.603292 0.000000 0.797521
vn -0.603292 0.000000 0.797521
s off
f 1/1/1 2/2/2 4/4/3 3/3/4
f 3/3/5 4/4/6 6/6/7 5/5/8
f 2/2/9 8/9/10 6/10/11 4/4/12
f 7/11/13 1/1/14 3/3/15 5/12/16
f 5/5/17 6/6/18 10/14/19 9/13/20
f 6/6/21 8/8/22 11/15/23 10/14/24
f 7/7/25 5/5/26 9/13/27 12/16/28
f 9/13/29 10/14/30 11/15/31 12/16/32
f 1/17/33 13/20/34 14/19/35 2/18/36
f 25/46/37 26/47/38 15/22/39 16/21/40
f 2/18/41 14/19/42 19/33/43 21/37/44 23/41/45 25/45/46 16/24/47 8/23/48
f 7/25/49 15/26/50 26/48/51 24/44/52 22/40/53 20/36/54 13/20/55 1/17/56
f 15/22/57 17/28/58 18/27/59 16/21/60
f 16/21/61 18/27/62 11/30/63 8/29/64
f 7/31/65 12/32/66 17/28/67 15/22/68
f 17/28/69 12/32/70 11/30/71 18/27/72
f 13/20/73 20/35/74 19/34/75 14/19/76
f 27/49/77 28/50/78 29/51/79 30/52/80
f 21/38/81 22/39/82 24/43/83 23/42/84
f 31/53/85 32/54/86 33/55/87 34/56/88
f 19/34/89 20/35/90 28/50/91 27/49/92
f 20/35/93 22/39/94 29/51/95 28/50/96
f 22/39/97 21/38/98 30/52/99 29/51/100
f 21/38/101 19/34/102 27/49/103 30/52/104
f 23/42/105 24/43/106 32/54/107 31/53/108
f 24/43/109 26/47/110 33/55/111 32/54/112
f 26/47/113 25/46/114 34/56/115 33/55/116
f 25/46/117 23/42/118 31/53/119 34/56/120
