# This file uses centimeters as units for non-parametric coordinates.

v -657.736770 -827.587192 -286.897097
v 278.612529 -758.137497 -739.885638
v -236.746878 691.140015 816.152289
v 699.602422 760.589710 363.163748
v -278.612529 758.137497 739.885638
v 657.736770 827.587192 286.897097
v -699.602422 -760.589710 -363.163748
v 236.746878 -691.140015 -816.152289
vt 0.375000 0.000000
vt 0.625000 0.000000
vt 0.375000 0.250000
vt 0.625000 0.250000
vt 0.375000 0.500000
vt 0.625000 0.500000
vt 0.375000 0.750000
vt 0.625000 0.750000
vt 0.375000 1.000000
vt 0.625000 1.000000
vt 0.875000 0.000000
vt 0.875000 0.250000
vt 0.125000 0.000000
vt 0.125000 0.250000
vn 0.381259 -0.610128 0.694540
vn 0.381259 -0.610128 0.694540
vn 0.381259 -0.610128 0.694540
vn 0.381259 -0.610128 0.694540
vn 0.218848 0.789497 0.573411
vn 0.218848 0.789497 0.573411
vn 0.218848 0.789497 0.573411
vn 0.218848 0.789497 0.573411
vn -0.381259 0.610128 -0.694540
vn -0.381259 0.610128 -0.694540
vn -0.381259 0.610128 -0.694540
vn -0.381259 0.610128 -0.694540
vn -0.218848 -0.789497 -0.573411
vn -0.218848 -0.789497 -0.573411
vn -0.218848 -0.789497 -0.573411
vn -0.218848 -0.789497 -0.573411
vn 0.898191 0.066619 -0.434528
vn 0.898191 0.066619 -0.434528
vn 0.898191 0.066619 -0.434528
vn 0.898191 0.066619 -0.434528
vn -0.898191 -0.066619 0.434528
vn -0.898191 -0.066619 0.434528
vn -0.898191 -0.066619 0.434528
vn -0.898191 -0.066619 0.434528
s off
f 1/1/1 2/2/2 4/4/3 3/3/4
f 3/3/5 4/4/6 6/6/7 5/5/8
f 5/5/9 6/6/10 8/8/11 7/7/12
f 7/7/13 8/8/14 2/10/15 1/9/16
f 2/2/17 8/11/18 6/12/19 4/4/20
f 7/13/21 1/1/22 3/3/23 5/14/24
