# This file uses centimeters as units for non-parametric coordinates.

v -650.153774 -627.673774 268.917670
v -277.536474 -679.070926 -592.306671
v 334.835869 626.230192 620.251317
v 707.453169 574.833040 -240.973024
v 277.536474 679.070926 592.306671
v 650.153774 627.673774 -268.917670
v -707.453169 -574.833040 240.973024
v -334.835869 -626.230192 -620.251317
vt 0.375000 0.000000
vt 0.625000 0.000000
vt 0.375000 0.250000
vt 0.625000 0.250000
vt 0.375000 0.500000
vt 0.625000 0.500000
vt 0.375000 0.750000
vt 0.625000 0.750000
vt 0.375000 1.000000
vt 0.625000 1.000000
vt 0.875000 0.000000
vt 0.875000 0.250000
vt 0.125000 0.000000
vt 0.125000 0.250000
vn 0.692000 -0.638153 0.337485
vn 0.692000 -0.638153 0.337485
vn 0.692000 -0.638153 0.337485
vn 0.692000 -0.638153 0.337485
vn 0.603266 0.767964 0.215177
vn 0.603266 0.767964 0.215177
vn 0.603266 0.767964 0.215177
vn 0.603266 0.767964 0.215177
vn -0.692000 0.638153 -0.337485
vn -0.692000 0.638153 -0.337485
vn -0.692000 0.638153 -0.337485
vn -0.692000 0.638153 -0.337485
vn -0.603266 -0.767964 -0.215177
vn -0.603266 -0.767964 -0.215177
vn -0.603266 -0.767964 -0.215177
vn -0.603266 -0.767964 -0.215177
vn 0.396493 -0.054690 -0.916407
vn 0.396493 -0.054690 -0.916407
vn 0.396493 -0.054690 -0.916407
vn 0.396493 -0.054690 -0.916407
vn -0.396493 0.054690 0.916407
vn -0.396493 0.054690 0.916407
vn -0.396493 0.054690 0.916407
vn -0.396493 0.054690 0.916407
s off
f 1/1/1 2/2/2 4/4/3 3/3/4
f 3/3/5 4/4/6 6/6/7 5/5/8
f 5/5/9 6/6/10 8/8/11 7/7/12
f 7/7/13 8/8/14 2/10/15 1/9/16
f 2/2/17 8/11/18 6/12/19 4/4/20
f 7/13/21 1/1/22 3/3/23 5/14/24
