# This file uses centimeters as units for non-parametric coordinates.

v 1776.217529 0.000000 4730.387207
v 2779.049561 0.000000 5422.001953
v 1634.090820 1913.759033 4632.368164
v 2921.176270 1563.495483 5520.021484
v 2521.744629 1913.759033 3345.282471
v 3808.830078 1563.495483 4232.936523
v 2663.871338 0.000000 3443.301514
v 3666.703369 0.000000 4134.916992
vt 0.035715 0.002037
vt 0.274562 0.002037
vt 0.308406 0.308595
vt 0.001848 0.377275
vt 0.307009 0.380993
vt 0.613568 0.380993
vt 0.613568 0.687619
vt 0.307009 0.687619
vt 0.314806 0.001992
vt 0.621364 0.070672
vt 0.587520 0.377118
vt 0.348672 0.377118
vt 0.062484 0.380948
vt 0.301331 0.380948
vt 0.301331 0.687506
vt 0.062484 0.687506
vt 0.001893 0.998008
vt 0.001893 0.691382
vt 0.308429 0.691382
vt 0.308429 0.998008
vt 0.619246 0.380768
vt 0.925804 0.380768
vt 0.925804 0.756006
vt 0.619246 0.756006
vn -0.567737 0.000000 0.823210
vn -0.567737 0.000000 0.823210
vn -0.567737 0.000000 0.823210
vn -0.567737 0.000000 0.823210
vn 0.179960 0.975813 0.124111
vn 0.179960 0.975813 0.124111
vn 0.179960 0.975813 0.124111
vn 0.179960 0.975813 0.124111
vn 0.567737 0.000000 -0.823210
vn 0.567737 0.000000 -0.823210
vn 0.567737 0.000000 -0.823210
vn 0.567737 0.000000 -0.823210
vn 0.000000 -1.000000 0.000000
vn 0.000000 -1.000000 0.000000
vn 0.000000 -1.000000 0.000000
vn 0.000000 -1.000000 0.000000
vn 0.818237 -0.109758 0.564307
vn 0.818237 -0.109758 0.564307
vn 0.818237 -0.109758 0.564307
vn 0.818237 -0.109758 0.564307
vn -0.819881 -0.089850 -0.565440
vn -0.819881 -0.089850 -0.565440
vn -0.819881 -0.089850 -0.565440
vn -0.819881 -0.089850 -0.565440
s off
f 1/1/1 2/2/2 4/3/3 3/4/4
f 3/5/5 4/6/6 6/7/7 5/8/8
f 5/9/9 6/10/10 8/11/11 7/12/12
f 7/13/13 8/14/14 2/15/15 1/16/16
f 2/17/17 8/18/18 6/19/19 4/20/20
f 7/21/21 1/22/22 3/23/23 5/24/24
