# This file uses centimeters as units for non-parametric coordinates.

v 36.855948 -87.145438 -186.173555
v 112.185261 -87.145438 -81.586277
v -26.528101 86.763702 -101.893272
v 31.116342 86.763702 -22.629239
v 174.375458 -26.216693 -286.184026
v 250.183119 -5.338995 -181.944647
v 174.375445 -87.145438 -286.184044
v 250.183116 -87.145438 -181.944651
v -213.712405 -87.145438 -3.948762
v -138.260402 -87.145438 100.549303
v -137.815026 -5.338995 100.225419
v -213.854803 -5.339017 -3.845190
v -325.990800 -87.145438 77.705240
v -250.183122 -87.145438 181.944642
v -216.816036 -5.338995 157.678565
v -292.623707 -5.338995 53.439172
v 36.446620 -5.338950 -185.875872
v 112.782355 -5.338995 -82.020519
v -79.858086 87.145438 58.076458
v -137.502556 87.145438 -21.187611
v 36.446620 -5.338950 -185.875872
v 13.581536 -48.851912 -217.746806
v -236.853348 -48.851912 -35.619064
v -332.377025 -48.851912 33.850138
v -233.499597 -46.242216 169.811617
v 151.305688 -48.851912 -317.906130
v 250.183116 -51.461629 -181.944651
v 188.471283 -87.145438 22.305223
v 88.760792 86.763702 56.634804
v 325.990780 -26.216693 -77.705267
v 325.990780 -87.145438 -77.705267
v -62.097050 -87.145438 204.530043
v -62.239468 -5.339017 204.633587
v -174.375445 -87.145438 286.184044
v -141.008371 -5.338995 261.917949
v 188.061955 -5.338950 22.602905
v -22.213610 87.145438 137.340537
v 188.061955 -5.338950 22.602905
v 211.336398 -48.851912 54.176161
v -39.098486 -48.851912 236.303903
v -134.622163 -48.851912 305.773105
v 349.060550 -48.851912 -45.983163
vt 0.312500 0.000000
vt 0.625000 0.000000
vt 0.375000 0.250000
vt 0.625000 0.250000
vt 0.375000 0.500000
vt 0.625000 0.500000
vt 0.375000 0.750000
vt 0.625000 0.750000
vt 0.375000 0.937500
vt 0.625000 0.937500
vt 0.125000 0.000000
vt 0.125000 0.250000
vt 0.375000 0.000000
vt 0.625000 0.000000
vt 0.625000 0.250000
vt 0.375000 0.183671
vt 0.375000 0.000000
vt 0.625000 0.000000
vt 0.625000 0.250000
vt 0.375000 0.250000
vt 0.250000 0.250000
vt 0.375000 0.375000
vt 0.625000 0.375000
vt 0.625000 0.250000
vt 0.375000 0.250000
vt 0.375000 0.117600
vt 0.312500 0.091900
vt 0.375000 0.091835
vt 0.375000 0.125000
vt 0.625000 0.125000
vt 0.125000 0.125000
vt 0.375000 0.625000
vt 0.625000 0.625000
vt 0.375000 0.125000
vt 0.625000 0.125000
vt 0.625000 0.250000
vt 0.375000 0.250000
vt 0.375000 0.375000
vt 0.625000 0.375000
vt 0.625000 0.500000
vt 0.375000 0.500000
vt 0.375000 0.625000
vt 0.625000 0.625000
vt 0.625000 0.750000
vt 0.375000 0.750000
vt 0.625000 0.937500
vt 0.375000 0.937500
vt 0.125000 0.125000
vt 0.312500 0.091900
vt 0.250000 0.250000
vt 0.125000 0.250000
vt 0.625000 0.250000
vt 0.375000 0.250000
vt 0.375000 0.183671
vt 0.625000 0.250000
vt 0.375000 0.000000
vt 0.625000 0.000000
vt 0.625000 0.000000
vt 0.375000 0.000000
vt 0.375000 0.091835
vt 0.375000 0.250000
vt 0.625000 0.250000
vt 0.375000 0.117600
vt 0.312500 0.000000
vt 0.625000 0.000000
vt 0.125000 0.000000
vn -0.732811 0.433318 0.524617
vn -0.725151 0.445542 0.525021
vn -0.731581 0.435305 0.524690
vn -0.722108 0.450307 0.525150
vn 0.000000 1.000000 0.000000
vn 0.002193 0.992867 -0.119209
vn 0.001555 0.996420 -0.084529
vn 0.003659 0.980004 -0.198942
vn 0.808746 0.000000 -0.588157
vn 0.808746 0.000000 -0.588157
vn 0.808746 0.000000 -0.588157
vn 0.808746 0.000000 -0.588158
vn 0.000000 -1.000000 0.000000
vn 0.000000 -1.000000 0.000000
vn 0.000000 -1.000000 0.000000
vn 0.000000 -1.000000 0.000000
vn -0.588157 0.000768 -0.808746
vn -0.545656 0.007555 -0.837975
vn -0.315912 0.824449 -0.469556
vn -0.369171 0.667573 -0.646575
vn -0.639288 0.612504 0.464920
vn -0.638247 0.613190 0.465445
vn -0.638833 0.613228 0.464589
vn -0.637523 0.613666 0.465809
vn 0.000000 -1.000000 0.000000
vn 0.000000 -1.000000 0.000000
vn 0.000000 -1.000000 0.000000
vn 0.000000 -1.000000 0.000000
vn 0.000000 1.000000 -0.000000
vn 0.000000 1.000000 -0.000000
vn 0.000000 1.000000 -0.000000
vn 0.000000 1.000000 -0.000000
vn -0.436863 0.669551 -0.600710
vn -0.436864 0.669551 -0.600710
vn -0.436864 0.669551 -0.600710
vn -0.436864 0.669551 -0.600710
vn 0.545006 0.738832 -0.396353
vn 0.545982 0.737730 -0.397063
vn 0.544710 0.737939 -0.398419
vn 0.544455 0.737171 -0.400185
vn 0.000000 0.000000 0.000000
vn 0.000000 0.000000 0.000000
vn 0.000000 0.000000 0.000000
vn -0.000000 -1.000000 0.000000
vn -0.000000 -1.000000 0.000000
vn -0.000000 -1.000000 0.000000
vn 0.000000 -1.000000 0.000000
vn 0.002250 0.999996 -0.001636
vn 0.002250 0.999996 -0.001636
vn 0.002250 0.999996 -0.001636
vn 0.002250 0.999996 -0.001636
vn -0.501280 0.523073 -0.689285
vn -0.496435 0.535993 -0.682835
vn -0.557613 0.317737 -0.766884
vn -0.557288 0.316105 -0.767794
vn 0.000000 0.000000 0.000000
vn -0.436864 0.669551 -0.600709
vn -0.436864 0.669550 -0.600710
vn -0.410870 -0.715541 -0.564967
vn -0.410870 -0.715541 -0.564966
vn -0.410870 -0.715541 -0.564967
vn -0.410870 -0.715541 -0.564966
vn -0.410870 -0.715541 -0.564967
vn -0.410870 -0.715541 -0.564967
vn -0.410870 -0.715541 -0.564967
vn -0.410870 -0.715541 -0.564967
vn -0.722109 0.450306 0.525151
vn -0.721303 0.454876 0.522312
vn -0.719190 0.466268 0.515131
vn -0.718764 0.468469 0.513726
vn 0.808746 0.000000 -0.588158
vn 0.808746 0.000000 -0.588158
vn 0.808746 0.000000 -0.588158
vn 0.808746 0.000000 -0.588157
vn -0.410870 -0.715541 -0.564967
vn -0.410870 -0.715541 -0.564966
vn -0.724899 0.433318 0.535497
vn -0.724589 0.435305 0.534304
vn -0.722923 0.445542 0.528085
vn -0.722108 0.450307 0.525150
vn 0.190390 0.980004 0.057821
vn 0.114084 0.992867 0.034647
vn 0.080895 0.996420 0.024568
vn -0.000000 1.000000 -0.000000
vn 0.808746 0.000000 -0.588157
vn 0.808746 0.000000 -0.588157
vn 0.000000 -1.000000 0.000000
vn 0.000000 -1.000000 0.000000
vn 0.588157 0.000767 0.808746
vn 0.349362 0.824449 0.445229
vn 0.629060 0.007555 0.777320
vn 0.501356 0.667573 0.550444
vn -0.639467 0.613190 0.463767
vn -0.639591 0.613666 0.462966
vn 0.000000 -1.000000 0.000000
vn 0.000000 -1.000000 0.000000
vn 0.000000 1.000000 -0.000000
vn 0.000000 1.000000 -0.000000
vn 0.436864 0.669551 0.600709
vn 0.436864 0.669551 0.600709
vn 0.436864 0.669551 0.600709
vn 0.436863 0.669551 0.600709
vn 0.548481 0.737171 -0.394648
vn 0.546879 0.737939 -0.395435
vn 0.000000 0.000000 0.000000
vn 0.000000 0.000000 0.000000
vn 0.000000 0.000000 0.000000
vn 0.000000 -1.000000 0.000000
vn 0.000000 -1.000000 0.000000
vn 0.002250 0.999996 -0.001636
vn 0.002250 0.999996 -0.001636
vn 0.558711 0.316104 0.766760
vn 0.496637 0.535993 0.682688
vn 0.557744 0.317737 0.766789
vn 0.501280 0.523073 0.689285
vn 0.000000 0.000000 0.000000
vn 0.436863 0.669551 0.600710
vn 0.436864 0.669551 0.600710
vn 0.410870 -0.715541 0.564967
vn 0.410870 -0.715541 0.564966
vn 0.410870 -0.715541 0.564966
vn 0.410870 -0.715541 0.564966
vn 0.410870 -0.715541 0.564967
vn 0.410870 -0.715541 0.564967
vn 0.410870 -0.715541 0.564967
vn 0.410870 -0.715541 0.564967
vn -0.710210 0.468469 0.525489
vn -0.719160 0.454876 0.525259
vn -0.711678 0.466268 0.525461
vn -0.722109 0.450306 0.525151
vn 0.808746 0.000000 -0.588157
vn 0.808746 0.000000 -0.588157
vn 0.410870 -0.715541 0.564966
vn 0.410869 -0.715541 0.564966
s 1
f 24/29/1 25/30/2 16/20/3
f 16/20/3 25/30/2 15/19/4
s 2
f 18/23/5 6/6/6 17/22/7
f 17/22/7 6/6/6 5/5/8
s 3
f 26/32/9 27/33/10 7/7/11
f 7/7/11 27/33/10 8/8/12
s 4
f 7/7/13 8/8/14 1/9/15
f 1/9/15 8/8/14 2/10/16
s 5
f 26/31/17 22/27/18 5/12/19
f 5/12/19 22/27/18 17/21/20
s 6
f 19/24/21 20/25/22 11/15/23
f 11/15/23 20/25/22 12/16/24
s 7
f 9/13/25 10/14/26 13/17/27
f 13/17/27 10/14/26 14/18/28
s 8
f 11/15/29 12/16/30 15/19/31
f 15/19/31 12/16/30 16/20/32
s 9
f 12/16/33 23/28/34 16/20/35
f 16/20/35 23/28/34 24/29/36
s 10
f 4/4/37 18/23/38 3/3/39
f 3/3/39 18/23/38 17/22/40
s 11
f 17/21/41 21/26/42 3/3/43
s 12
f 1/1/44 2/2/45 9/13/46
f 9/13/46 2/2/45 10/14/47
s 13
f 4/4/48 3/3/49 19/24/50
f 19/24/50 3/3/49 20/25/51
s 14
f 21/26/52 12/16/53 3/3/54
f 3/3/54 12/16/53 20/25/55
s 11
f 17/21/41 22/27/56 21/26/42
s 14
f 12/16/53 21/26/52 23/28/57
f 23/28/57 21/26/52 22/27/58
s 15
f 23/28/59 22/27/60 9/13/61
f 9/13/61 22/27/60 1/1/62
s 16
f 23/28/63 9/13/64 24/29/65
f 24/29/65 9/13/64 13/17/66
s 17
f 14/18/67 25/30/68 13/17/69
f 13/17/69 25/30/68 24/29/70
s 18
f 6/6/71 27/33/72 5/5/73
f 5/5/73 27/33/72 26/32/74
s 5
f 7/11/75 1/1/76 26/31/17
f 26/31/17 1/1/76 22/27/18
s 19
f 41/34/77 35/37/78 25/35/79
f 25/35/79 35/37/78 15/36/80
s 20
f 30/41/81 6/40/82 36/38/83
f 36/38/83 6/40/82 18/39/84
s 3
f 42/42/85 31/45/86 27/43/10
f 27/43/10 31/45/86 8/44/12
s 4
f 31/45/87 28/47/88 8/44/14
f 8/44/14 28/47/88 2/46/16
s 21
f 42/48/89 30/51/90 39/49/91
f 39/49/91 30/51/90 36/50/92
s 6
f 19/52/21 11/55/23 37/53/93
f 37/53/93 11/55/23 33/54/94
s 7
f 32/56/95 34/59/96 10/57/26
f 10/57/26 34/59/96 14/58/28
s 8
f 11/55/29 15/36/31 33/54/97
f 33/54/97 15/36/31 35/37/98
s 22
f 33/54/99 35/37/100 40/60/101
f 40/60/101 35/37/100 41/34/102
s 10
f 36/38/103 18/39/38 29/61/104
f 29/61/104 18/39/38 4/62/37
s 23
f 36/50/105 29/61/106 38/63/107
s 12
f 28/64/108 32/56/109 2/65/45
f 2/65/45 32/56/109 10/57/47
s 13
f 4/62/48 19/52/50 29/61/110
f 29/61/110 19/52/50 37/53/111
s 24
f 37/53/112 33/54/113 29/61/114
f 29/61/114 33/54/113 38/63/115
s 23
f 36/50/105 38/63/107 39/49/116
s 24
f 33/54/113 40/60/117 38/63/115
f 38/63/115 40/60/117 39/49/118
s 25
f 40/60/119 32/56/120 39/49/121
f 39/49/121 32/56/120 28/64/122
s 26
f 34/59/123 32/56/124 41/34/125
f 41/34/125 32/56/124 40/60/126
s 27
f 41/34/127 25/35/128 34/59/129
f 34/59/129 25/35/128 14/58/130
s 18
f 42/42/131 27/43/72 30/41/132
f 30/41/132 27/43/72 6/40/71
s 21
f 31/66/133 42/48/89 28/64/134
f 28/64/134 42/48/89 39/49/91
