# This file uses centimeters as units for non-parametric coordinates.

v -5078.032715 0.000000 1060.820068
v -5769.647949 0.000000 2063.651855
v -4980.013184 1913.759033 918.693237
v -5867.666992 1563.495483 2205.778809
v -3692.927490 1913.759033 1806.346924
v -4580.582031 1563.495483 3093.432373
v -3790.947021 0.000000 1948.473877
v -4482.562500 0.000000 2951.305664
vt 0.035715 0.002037
vt 0.274562 0.002037
vt 0.308406 0.308595
vt 0.001848 0.377275
vt 0.307009 0.380993
vt 0.613568 0.380993
vt 0.613568 0.687619
vt 0.307009 0.687619
vt 0.314806 0.001992
vt 0.621364 0.070672
vt 0.587520 0.377118
vt 0.348672 0.377118
vt 0.062484 0.380948
vt 0.301331 0.380948
vt 0.301331 0.687506
vt 0.062484 0.687506
vt 0.001893 0.998008
vt 0.001893 0.691382
vt 0.308429 0.691382
vt 0.308429 0.998008
vt 0.619246 0.380768
vt 0.925804 0.380768
vt 0.925804 0.756006
vt 0.619246 0.756006
vn -0.823210 0.000000 -0.567737
vn -0.823210 0.000000 -0.567737
vn -0.823210 0.000000 -0.567737
vn -0.823210 0.000000 -0.567737
vn -0.124111 0.975813 0.179960
vn -0.124111 0.975813 0.179960
vn -0.124111 0.975813 0.179960
vn -0.124111 0.975813 0.179960
vn 0.823210 0.000000 0.567737
vn 0.823210 0.000000 0.567737
vn 0.823210 0.000000 0.567737
vn 0.823210 0.000000 0.567737
vn 0.000000 -1.000000 0.000000
vn 0.000000 -1.000000 0.000000
vn 0.000000 -1.000000 0.000000
vn 0.000000 -1.000000 0.000000
vn -0.564307 -0.109758 0.818237
vn -0.564307 -0.109758 0.818237
vn -0.564307 -0.109758 0.818237
vn -0.564307 -0.109758 0.818237
vn 0.565440 -0.089850 -0.819881
vn 0.565440 -0.089850 -0.819881
vn 0.565440 -0.089850 -0.819881
vn 0.565440 -0.089850 -0.819881
s off
f 1/1/1 2/2/2 4/3/3 3/4/4
f 3/5/5 4/6/6 6/7/7 5/8/8
f 5/9/9 6/10/10 8/11/11 7/12/12
f 7/13/13 8/14/14 2/15/15 1/16/16
f 2/17/17 8/18/18 6/19/19 4/20/20
f 7/21/21 1/22/22 3/23/23 5/24/24
