# This file uses centimeters as units for non-parametric coordinates.

v -23.125785 -311.466881 -487.906908
v -411.327235 -311.466881 263.433866
v -23.125785 311.466881 -487.906908
v -411.327235 311.466881 263.433866
v 411.328249 311.466881 -263.433796
v 23.126613 311.466881 487.907336
v 411.328249 -311.466881 -263.433796
v 23.126613 -311.466881 487.907336
vt 0.022215 -0.157809
vt 0.952663 -0.157809
vt 0.952663 0.982999
vt 0.022215 0.982999
vt -0.001224 -0.079719
vt 0.993412 -0.079719
vt 0.993412 0.914917
vt -0.001224 0.914917
vt 0.001101 1.129196
vt 0.001101 -0.128135
vt 0.986860 -0.128135
vt 0.986860 1.129196
vt 0.007339 0.013945
vt 0.979468 0.013945
vt 0.979468 0.986074
vt 0.007339 0.986074
vt -0.081297 -0.156444
vt 1.080765 -0.156444
vt 1.080765 1.005618
vt -0.081297 1.005618
vt 0.061993 -0.059304
vt 1.188354 0.116460
vt 1.012590 1.242821
vt -0.113771 1.067057
vn -0.888422 0.000000 -0.459028
vn -0.888422 0.000000 -0.459028
vn -0.888422 0.000000 -0.459028
vn -0.888422 0.000000 -0.459028
vn -0.000000 1.000000 0.000000
vn -0.000000 1.000000 0.000000
vn -0.000000 1.000000 0.000000
vn -0.000000 1.000000 0.000000
vn 0.888422 0.000000 0.459028
vn 0.888422 0.000000 0.459028
vn 0.888422 0.000000 0.459028
vn 0.888422 0.000000 0.459028
vn 0.000000 -1.000000 0.000000
vn 0.000000 -1.000000 0.000000
vn 0.000000 -1.000000 0.000000
vn 0.000000 -1.000000 0.000000
vn -0.459029 0.000000 0.888421
vn -0.459029 0.000000 0.888421
vn -0.459029 0.000000 0.888421
vn -0.459029 0.000000 0.888421
vn 0.459028 0.000000 -0.888422
vn 0.459028 0.000000 -0.888422
vn 0.459028 0.000000 -0.888422
vn 0.459028 0.000000 -0.888422
s off
f 1/17/1 2/18/2 4/19/3 3/20/4
f 3/9/5 4/10/6 6/11/7 5/12/8
f 5/21/9 6/22/10 8/23/11 7/24/12
f 7/13/13 8/14/14 2/15/15 1/16/16
f 2/1/17 8/2/18 6/3/19 4/4/20
f 7/5/21 1/6/22 3/7/23 5/8/24
