# This file uses centimeters as units for non-parametric coordinates.

v 31.136889 -65.397775 -210.048185
v -207.540407 -72.458386 32.301342
v 31.403410 78.151284 -205.603544
v -207.273886 71.090674 36.745982
v 207.540407 72.458386 -32.301342
v -31.136889 65.397775 210.048185
v 207.273886 -71.090674 -36.745982
v -31.403410 -78.151284 205.603544
vt 0.375000 0.000000
vt 0.625000 0.000000
vt 0.375000 0.250000
vt 0.625000 0.250000
vt 0.375000 0.500000
vt 0.625000 0.500000
vt 0.375000 0.750000
vt 0.625000 0.750000
vt 0.375000 1.000000
vt 0.625000 1.000000
vt 0.875000 0.000000
vt 0.875000 0.250000
vt 0.125000 0.000000
vt 0.125000 0.250000
vn -0.712631 0.023033 -0.701161
vn -0.712631 0.023033 -0.701161
vn -0.712631 0.023033 -0.701161
vn -0.712631 0.023033 -0.701161
vn 0.001856 0.999519 0.030948
vn 0.001856 0.999519 0.030948
vn 0.001856 0.999519 0.030948
vn 0.001856 0.999519 0.030948
vn 0.712631 -0.023033 0.701161
vn 0.712631 -0.023033 0.701161
vn 0.712631 -0.023033 0.701161
vn 0.712631 -0.023033 0.701161
vn -0.001856 -0.999519 -0.030948
vn -0.001856 -0.999519 -0.030948
vn -0.001856 -0.999519 -0.030948
vn -0.001856 -0.999519 -0.030948
vn -0.701537 -0.020753 0.712331
vn -0.701537 -0.020753 0.712331
vn -0.701537 -0.020753 0.712331
vn -0.701537 -0.020753 0.712331
vn 0.701537 0.020753 -0.712331
vn 0.701537 0.020753 -0.712331
vn 0.701537 0.020753 -0.712331
vn 0.701537 0.020753 -0.712331
s off
f 1/1/1 2/2/2 4/4/3 3/3/4
f 3/3/5 4/4/6 6/6/7 5/5/8
f 5/5/9 6/6/10 8/8/11 7/7/12
f 7/7/13 8/8/14 2/10/15 1/9/16
f 2/2/17 8/11/18 6/12/19 4/4/20
f 7/13/21 1/1/22 3/3/23 5/14/24
