# This file uses centimeters as units for non-parametric coordinates.

v -1477.470932 -417.361863 385.731598
v -955.536074 -413.604638 1192.385071
v -1478.680194 415.929338 382.632738
v -956.745337 419.686563 1189.286211
v 955.536074 413.604638 -1192.385071
v 1477.470932 417.361863 -385.731598
v 956.745337 -419.686563 -1189.286211
v 1478.680194 -415.929338 -382.632738
vt 0.375000 0.000000
vt 0.625000 0.000000
vt 0.375000 0.250000
vt 0.625000 0.250000
vt 0.375000 0.500000
vt 0.625000 0.500000
vt 0.375000 0.750000
vt 0.625000 0.750000
vt 0.375000 1.000000
vt 0.625000 1.000000
vt 0.875000 0.000000
vt 0.875000 0.250000
vt 0.125000 0.000000
vt 0.125000 0.250000
vn -0.839580 0.000802 0.543236
vn -0.839580 0.000802 0.543236
vn -0.839580 0.000802 0.543236
vn -0.839580 0.000802 0.543236
vn -0.001451 0.999992 -0.003719
vn -0.001451 0.999992 -0.003719
vn -0.001451 0.999992 -0.003719
vn -0.001451 0.999992 -0.003719
vn 0.839580 -0.000802 -0.543236
vn 0.839580 -0.000802 -0.543236
vn 0.839580 -0.000802 -0.543236
vn 0.839580 -0.000802 -0.543236
vn 0.001451 -0.999992 0.003719
vn 0.001451 -0.999992 0.003719
vn 0.001451 -0.999992 0.003719
vn 0.001451 -0.999992 0.003719
vn 0.543234 0.003911 0.839572
vn 0.543234 0.003911 0.839572
vn 0.543234 0.003911 0.839572
vn 0.543234 0.003911 0.839572
vn -0.543234 -0.003911 -0.839572
vn -0.543234 -0.003911 -0.839572
vn -0.543234 -0.003911 -0.839572
vn -0.543234 -0.003911 -0.839572
s off
f 1/1/1 2/2/2 4/4/3 3/3/4
f 3/3/5 4/4/6 6/6/7 5/5/8
f 5/5/9 6/6/10 8/8/11 7/7/12
f 7/7/13 8/8/14 2/10/15 1/9/16
f 2/2/17 8/11/18 6/12/19 4/4/20
f 7/13/21 1/1/22 3/3/23 5/14/24
