# This file uses centimeters as units for non-parametric coordinates.

v -3180.723145 0.000000 3220.152100
v -4255.328125 0.000000 3793.935303
v -3028.424316 1913.759033 3138.832275
v -4407.626953 1563.495483 3875.255127
v -2292.001465 1913.759033 4518.035156
v -3671.204346 1563.495483 5254.458008
v -2444.300293 0.000000 4599.354492
v -3518.905518 0.000000 5173.138672
vt 0.035715 0.002037
vt 0.274562 0.002037
vt 0.308406 0.308595
vt 0.001848 0.377275
vt 0.307009 0.380993
vt 0.613568 0.380993
vt 0.613568 0.687619
vt 0.307009 0.687619
vt 0.314806 0.001992
vt 0.621364 0.070672
vt 0.587520 0.377118
vt 0.348672 0.377118
vt 0.062484 0.380948
vt 0.301331 0.380948
vt 0.301331 0.687506
vt 0.062484 0.687506
vt 0.001893 0.998008
vt 0.001893 0.691382
vt 0.308429 0.691382
vt 0.308429 0.998008
vt 0.619246 0.380768
vt 0.925804 0.380768
vt 0.925804 0.756006
vt 0.619246 0.756006
vn -0.471011 0.000000 -0.882128
vn -0.471011 0.000000 -0.882128
vn -0.471011 0.000000 -0.882128
vn -0.471011 0.000000 -0.882128
vn -0.192839 0.975813 0.102966
vn -0.192839 0.975813 0.102966
vn -0.192839 0.975813 0.102966
vn -0.192839 0.975813 0.102966
vn 0.471011 0.000000 0.882128
vn 0.471011 0.000000 0.882128
vn 0.471011 0.000000 0.882128
vn 0.471011 0.000000 0.882128
vn 0.000000 -1.000000 0.000000
vn 0.000000 -1.000000 0.000000
vn 0.000000 -1.000000 0.000000
vn 0.000000 -1.000000 0.000000
vn -0.876798 -0.109758 0.468165
vn -0.876798 -0.109758 0.468165
vn -0.876798 -0.109758 0.468165
vn -0.876798 -0.109758 0.468165
vn 0.878560 -0.089850 -0.469106
vn 0.878560 -0.089850 -0.469106
vn 0.878560 -0.089850 -0.469106
vn 0.878560 -0.089850 -0.469106
s off
f 1/1/1 2/2/2 4/3/3 3/4/4
f 3/5/5 4/6/6 6/7/7 5/8/8
f 5/9/9 6/10/10 8/11/11 7/12/12
f 7/13/13 8/14/14 2/15/15 1/16/16
f 2/17/17 8/18/18 6/19/19 4/20/20
f 7/21/21 1/22/22 3/23/23 5/24/24
