# This file uses centimeters as units for non-parametric coordinates.

v 39123.855081 -518.847717 46516.063405
v 39123.855081 -518.847717 -46516.063405
v 39123.855081 518.847717 46516.063405
v 39123.855081 518.847717 -46516.063405
v -32666.185563 518.847717 46516.063405
v -32666.185563 518.847717 -46516.063405
v -32666.185563 -518.847717 46516.063405
v -32666.185563 -518.847717 -46516.063405
v 17873.296160 518.847717 46516.063405
v 17873.296160 518.847717 -46516.063405
v 2733.922718 518.847717 46516.063405
v 2733.922718 518.847717 -46516.063405
v -8632.175190 518.847717 46516.063405
v -8632.175190 518.847717 -46516.063405
vt 0.003432 0.997179
vt 0.003432 0.669041
vt 0.301740 0.669041
vt 0.301740 0.778420
vt 0.301740 0.831453
vt 0.301740 0.901058
vt 0.301740 0.997179
vt 0.310026 0.998008
vt 0.310026 0.669041
vt 0.608334 0.669041
vt 0.608334 0.765991
vt 0.608334 0.835596
vt 0.608334 0.886971
vt 0.608334 0.998008
vt 0.287653 0.336759
vt 0.585961 0.336759
vt 0.585961 0.665726
vt 0.287653 0.665726
vt 0.305883 0.001992
vt 0.604191 0.001992
vt 0.604191 0.300300
vt 0.305883 0.300300
vt 0.590932 0.298642
vt 0.889240 0.298642
vt 0.889240 0.603579
vt 0.590932 0.603579
vn 1.000000 0.000000 0.000000
vn 1.000000 0.000000 0.000000
vn 1.000000 0.000000 0.000000
vn 1.000000 0.000000 0.000000
vn -1.000000 0.000000 -0.000000
vn -1.000000 0.000000 -0.000000
vn -1.000000 0.000000 -0.000000
vn -1.000000 0.000000 -0.000000
vn 0.000000 -1.000000 0.000000
vn 0.000000 -1.000000 0.000000
vn 0.000000 -1.000000 0.000000
vn 0.000000 -1.000000 0.000000
vn 0.000000 -0.000001 -1.000000
vn 0.000000 -0.000001 -1.000000
vn 0.000000 -0.000001 -1.000000
vn 0.000000 -0.000001 -1.000000
vn 0.000000 -0.000001 -1.000000
vn 0.000000 -0.000001 -1.000000
vn 0.000000 -0.000001 -1.000000
vn -0.000000 0.000001 1.000000
vn -0.000000 0.000001 1.000000
vn -0.000000 0.000001 1.000000
vn -0.000000 0.000001 1.000000
vn -0.000000 0.000001 1.000000
vn -0.000000 0.000001 1.000000
vn -0.000000 0.000001 1.000000
vn 0.000000 1.000000 0.000000
vn 0.000000 1.000000 0.000000
vn 0.000000 1.000000 0.000000
vn 0.000000 1.000000 0.000000
vn 0.000000 1.000000 0.000000
vn 0.000000 1.000000 0.000000
vn 0.000000 1.000000 0.000000
vn 0.000000 1.000000 0.000000
vn 0.000000 1.000000 0.000000
vn 0.000000 1.000000 0.000000
s off
f 1/19/1 2/20/2 4/21/3 3/22/4
f 5/23/5 6/24/6 8/25/7 7/26/8
f 7/15/9 8/16/10 2/17/11 1/18/12
f 2/1/13 8/2/14 6/3/15 14/4/16 12/5/17 10/6/18 4/7/19
f 7/8/20 1/9/21 3/10/22 9/11/23 11/12/24 13/13/25 5/14/26
f 4/7/27 10/6/28 12/5/29 14/4/30 6/24/31 5/14/32 13/13/33 11/12/34 9/11/35 3/22/36
