# This file uses centimeters as units for non-parametric coordinates.

v 3854.124756 0.000000 -1636.307129
v 4928.729004 0.000000 -2210.090332
v 3701.825928 1913.759033 -1554.987305
v 5081.028320 1563.495483 -2291.410156
v 2965.403076 1913.759033 -2934.189941
v 4344.605469 1563.495483 -3670.612793
v 3117.701904 0.000000 -3015.509521
v 4192.306641 0.000000 -3589.292969
vt 0.035715 0.002037
vt 0.274562 0.002037
vt 0.308406 0.308595
vt 0.001848 0.377275
vt 0.307009 0.380993
vt 0.613568 0.380993
vt 0.613568 0.687619
vt 0.307009 0.687619
vt 0.314806 0.001992
vt 0.621364 0.070672
vt 0.587520 0.377118
vt 0.348672 0.377118
vt 0.062484 0.380948
vt 0.301331 0.380948
vt 0.301331 0.687506
vt 0.062484 0.687506
vt 0.001893 0.998008
vt 0.001893 0.691382
vt 0.308429 0.691382
vt 0.308429 0.998008
vt 0.619246 0.380768
vt 0.925804 0.380768
vt 0.925804 0.756006
vt 0.619246 0.756006
vn 0.471011 0.000000 0.882128
vn 0.471011 0.000000 0.882128
vn 0.471011 0.000000 0.882128
vn 0.471011 0.000000 0.882128
vn 0.192839 0.975813 -0.102966
vn 0.192839 0.975813 -0.102966
vn 0.192839 0.975813 -0.102966
vn 0.192839 0.975813 -0.102966
vn -0.471011 0.000000 -0.882128
vn -0.471011 0.000000 -0.882128
vn -0.471011 0.000000 -0.882128
vn -0.471011 0.000000 -0.882128
vn 0.000000 -1.000000 0.000000
vn 0.000000 -1.000000 0.000000
vn 0.000000 -1.000000 0.000000
vn 0.000000 -1.000000 0.000000
vn 0.876798 -0.109758 -0.468165
vn 0.876798 -0.109758 -0.468165
vn 0.876798 -0.109758 -0.468165
vn 0.876798 -0.109758 -0.468165
vn -0.878560 -0.089850 0.469106
vn -0.878560 -0.089850 0.469106
vn -0.878560 -0.089850 0.469106
vn -0.878560 -0.089850 0.469106
s off
f 1/1/1 2/2/2 4/3/3 3/4/4
f 3/5/5 4/6/6 6/7/7 5/8/8
f 5/9/9 6/10/10 8/11/11 7/12/12
f 7/13/13 8/14/14 2/15/15 1/16/16
f 2/17/17 8/18/18 6/19/19 4/20/20
f 7/21/21 1/22/22 3/23/23 5/24/24
