# This file uses centimeters as units for non-parametric coordinates.

v -212.260866 87.102289 90.674848
v -172.757365 87.102289 153.073499
v -259.837971 160.747946 120.795086
v -220.334465 160.747946 183.193745
v 160.857794 160.747957 -145.540066
v 200.361268 160.747946 -83.141419
v 160.857784 87.102289 -145.540081
v 200.361247 87.102289 -83.141451
v 162.089700 187.992324 -146.319986
v 201.593201 187.992324 -83.921335
v 326.392997 87.102289 -162.929849
v 286.065804 87.102289 -224.807080
v -259.837971 13.456610 120.795086
v -220.334470 13.456610 183.193737
v 160.857779 13.456610 -145.540089
v 200.361268 13.456610 -83.141419
v 162.089700 -13.787769 -146.319986
v 201.593201 -13.787769 -83.921335
v -74.040551 13.456610 90.577609
v -113.544052 13.456616 28.178939
v -24.510886 13.456610 59.221256
v -64.014393 13.456610 -3.177413
v 63.371396 13.456610 3.584489
v 23.867896 13.456610 -58.814179
v 112.901079 13.456610 -27.771892
v 73.397574 13.456610 -90.170568
v -74.040551 -132.679962 90.577609
v -113.544062 -132.679962 28.178942
v -64.014396 -132.679962 -3.177417
v -24.510901 -132.679962 59.221233
v 63.371396 -132.679962 3.584489
v 23.867901 -132.679962 -58.814171
v 73.397584 -132.679962 -90.170552
v 112.901079 -132.679962 -27.771892
vt 0.375000 0.000000
vt 0.625000 0.000000
vt 0.375000 0.250000
vt 0.625000 0.250000
vt 0.375000 0.500000
vt 0.625000 0.500000
vt 0.375000 0.750000
vt 0.625000 0.750000
vt 0.875000 0.000000
vt 0.875000 0.250000
vt 0.125000 0.000000
vt 0.125000 0.250000
vt 0.375000 0.500000
vt 0.625000 0.500000
vt 0.625000 0.687500
vt 0.375000 0.687500
vt 0.375000 0.000000
vt 0.625000 0.000000
vt 0.625000 0.250000
vt 0.375000 0.250000
vt 0.625000 0.500000
vt 0.375000 0.500000
vt 0.875000 0.000000
vt 0.875000 0.250000
vt 0.125000 0.000000
vt 0.125000 0.250000
vt 0.625000 0.500000
vt 0.375000 0.500000
vt 0.625000 0.750000
vt 0.625000 0.687500
vt 0.375000 0.750000
vt 0.375000 0.687500
vt 0.675000 0.250000
vt 0.625000 0.300000
vt 0.375000 0.300000
vt 0.325000 0.250000
vt 0.725000 0.250000
vt 0.625000 0.350000
vt 0.375000 0.350000
vt 0.275000 0.250000
vt 0.775000 0.250000
vt 0.625000 0.400000
vt 0.375000 0.400000
vt 0.225000 0.250000
vt 0.825000 0.250000
vt 0.625000 0.450000
vt 0.375000 0.450000
vt 0.175000 0.250000
vt 0.625000 0.300000
vt 0.375000 0.300000
vt 0.375000 0.350000
vt 0.625000 0.350000
vt 0.625000 0.400000
vt 0.375000 0.400000
vt 0.375000 0.450000
vt 0.625000 0.450000
vn -0.671197 -0.607400 0.424923
vn -0.671197 -0.607400 0.424923
vn -0.671197 -0.607400 0.424923
vn -0.671197 -0.607400 0.424923
vn 0.000000 1.000000 0.000000
vn 0.000000 1.000000 0.000000
vn 0.000000 1.000000 0.000000
vn 0.000000 1.000000 0.000000
vn 0.534901 -0.000000 0.844915
vn 0.534901 -0.000000 0.844915
vn 0.534901 -0.000000 0.844915
vn 0.534901 -0.000000 0.844915
vn -0.534901 0.000000 -0.844915
vn -0.534901 0.000000 -0.844915
vn -0.534901 0.000000 -0.844915
vn -0.534901 0.000000 -0.844915
vn -0.843707 0.053441 0.534137
vn -0.843707 0.053441 0.534136
vn -0.843707 0.053441 0.534136
vn -0.843707 0.053441 0.534137
vn 0.534900 -0.000000 0.844915
vn 0.534900 -0.000000 0.844915
vn 0.534900 -0.000000 0.844915
vn 0.534900 -0.000000 0.844915
vn -0.534901 0.000000 -0.844915
vn -0.534901 0.000000 -0.844915
vn -0.534901 0.000000 -0.844915
vn -0.534901 0.000000 -0.844915
vn 0.475630 0.824881 -0.305529
vn 0.475630 0.824881 -0.305529
vn 0.475629 0.824881 -0.305529
vn 0.475629 0.824881 -0.305529
vn -0.671197 0.607400 0.424923
vn -0.671197 0.607400 0.424923
vn -0.671197 0.607400 0.424923
vn -0.671197 0.607400 0.424923
vn -0.000000 -1.000000 0.000000
vn -0.000000 -1.000000 0.000000
vn -0.000000 -1.000000 0.000000
vn -0.000000 -1.000000 0.000000
vn 0.534901 0.000000 0.844915
vn 0.534901 0.000000 0.844915
vn 0.534901 0.000000 0.844915
vn 0.534901 0.000000 0.844915
vn 0.534901 0.000000 0.844915
vn 0.534901 0.000000 0.844915
vn 0.534901 0.000000 0.844915
vn 0.534901 0.000000 0.844915
vn -0.534901 0.000000 -0.844915
vn -0.534901 0.000000 -0.844915
vn -0.534901 0.000000 -0.844915
vn -0.534901 0.000000 -0.844915
vn -0.534901 0.000000 -0.844915
vn -0.534901 0.000000 -0.844915
vn -0.534901 0.000000 -0.844915
vn -0.534901 0.000000 -0.844915
vn -0.843707 -0.053441 0.534136
vn -0.843707 -0.053441 0.534137
vn -0.843707 -0.053441 0.534136
vn -0.843707 -0.053441 0.534136
vn 0.534900 0.000000 0.844915
vn 0.534900 0.000000 0.844915
vn 0.534900 0.000000 0.844915
vn 0.534900 0.000000 0.844915
vn -0.534901 -0.000000 -0.844915
vn -0.534901 -0.000000 -0.844915
vn -0.534901 -0.000000 -0.844915
vn -0.534901 -0.000000 -0.844915
vn 0.475630 -0.824881 -0.305529
vn 0.475630 -0.824881 -0.305529
vn 0.475630 -0.824881 -0.305529
vn 0.475630 -0.824881 -0.305529
vn -0.000000 -1.000000 -0.000000
vn -0.000000 -1.000000 -0.000000
vn -0.000000 -1.000000 -0.000000
vn -0.000000 -1.000000 -0.000000
vn -0.000000 -1.000000 0.000000
vn -0.000000 -1.000000 0.000000
vn -0.000000 -1.000000 0.000000
vn -0.000000 -1.000000 0.000000
vn -0.000000 -1.000000 0.000000
vn -0.000000 -1.000000 0.000000
vn -0.000000 -1.000000 0.000000
vn -0.000000 -1.000000 0.000000
vn 0.000000 -1.000000 0.000000
vn 0.000000 -1.000000 0.000000
vn 0.000000 -1.000000 0.000000
vn 0.000000 -1.000000 0.000000
vn -0.844915 0.000000 0.534901
vn -0.844915 0.000000 0.534901
vn -0.844915 0.000000 0.534901
vn -0.844915 0.000000 0.534901
vn -0.534901 0.000000 -0.844915
vn -0.534901 0.000000 -0.844915
vn -0.534901 0.000000 -0.844915
vn -0.534901 0.000000 -0.844915
vn 0.844915 -0.000000 -0.534901
vn 0.844915 -0.000000 -0.534901
vn 0.844915 -0.000000 -0.534901
vn 0.844915 -0.000000 -0.534901
vn 0.534901 -0.000000 0.844915
vn 0.534901 -0.000000 0.844915
vn 0.534901 -0.000000 0.844915
vn 0.534901 -0.000000 0.844915
vn -0.844915 -0.000000 0.534901
vn -0.844915 -0.000000 0.534901
vn -0.844915 -0.000000 0.534901
vn -0.844915 -0.000000 0.534901
vn -0.534901 -0.000000 -0.844915
vn -0.534901 -0.000000 -0.844915
vn -0.534901 -0.000000 -0.844915
vn -0.534901 -0.000000 -0.844915
vn 0.844915 0.000000 -0.534901
vn 0.844915 0.000000 -0.534901
vn 0.844915 0.000000 -0.534901
vn 0.844915 0.000000 -0.534901
vn 0.534901 0.000000 0.844915
vn 0.534901 0.000000 0.844915
vn 0.534901 0.000000 0.844915
vn 0.534901 0.000000 0.844915
s off
f 1/1/1 2/2/2 4/4/3 3/3/4
f 3/3/5 4/4/6 6/6/7 5/5/8
f 2/2/9 8/9/10 6/10/11 4/4/12
f 7/11/13 1/1/14 3/3/15 5/12/16
f 5/5/17 6/6/18 10/14/19 9/13/20
f 6/6/21 8/8/22 11/15/23 10/14/24
f 7/7/25 5/5/26 9/13/27 12/16/28
f 9/13/29 10/14/30 11/15/31 12/16/32
f 1/17/33 13/20/34 14/19/35 2/18/36
f 25/46/37 26/47/38 15/22/39 16/21/40
f 2/18/41 14/19/42 19/33/43 21/37/44 23/41/45 25/45/46 16/24/47 8/23/48
f 7/25/49 15/26/50 26/48/51 24/44/52 22/40/53 20/36/54 13/20/55 1/17/56
f 15/22/57 17/28/58 18/27/59 16/21/60
f 16/21/61 18/27/62 11/30/63 8/29/64
f 7/31/65 12/32/66 17/28/67 15/22/68
f 17/28/69 12/32/70 11/30/71 18/27/72
f 13/20/73 20/35/74 19/34/75 14/19/76
f 27/49/77 28/50/78 29/51/79 30/52/80
f 21/38/81 22/39/82 24/43/83 23/42/84
f 31/53/85 32/54/86 33/55/87 34/56/88
f 19/34/89 20/35/90 28/50/91 27/49/92
f 20/35/93 22/39/94 29/51/95 28/50/96
f 22/39/97 21/38/98 30/52/99 29/51/100
f 21/38/101 19/34/102 27/49/103 30/52/104
f 23/42/105 24/43/106 32/54/107 31/53/108
f 24/43/109 26/47/110 33/55/111 32/54/112
f 26/47/113 25/46/114 34/56/115 33/55/116
f 25/46/117 23/42/118 31/53/119 34/56/120
