# This file uses centimeters as units for non-parametric coordinates.

v 1062.276808 3101.242284 1044.566631
v 896.432760 -3533.113701 881.487527
v -1062.276808 3098.330246 -1044.566631
v -896.432764 -3533.113701 -881.487523
v -187.082189 3682.205516 -183.963173
vt 0.031253 0.001992
vt 0.379858 0.001992
vt 0.410292 0.915007
vt 0.241523 0.998008
vt 0.000819 0.915007
vn 0.701138 -0.000000 -0.713026
vn 0.701138 -0.000000 -0.713026
vn 0.701138 -0.000000 -0.713026
vn 0.701138 0.000000 -0.713026
vn 0.701138 0.000000 -0.713026
s 1
f 2/1/1 4/2/2 1/5/3
f 1/5/3 4/2/2 5/4/4
f 4/2/2 3/3/5 5/4/4
