# This file uses centimeters as units for non-parametric coordinates.

v -4.107123 3641.074032 12.201933
v -132.516984 -3570.291884 393.697318
v 423.968744 4324.725381 -1259.577096
v 520.435456 -3570.291884 -1546.171951
v -132.516984 908.331173 393.697318
v 13.351147 1492.532653 -39.665185
v 424.168965 2982.024695 -1260.171938
v 520.435456 2192.001614 -1546.171951
v 117.448818 5412.668678 -348.931007
v 191.555833 5533.791122 -569.096999
v 191.555833 3911.966898 -569.096999
v 341.739976 4176.000514 -1015.282028
v 117.448818 3800.785225 -348.931007
vt 0.190165 0.869271
vt 0.163062 0.848944
vt 0.190165 0.720208
vt 0.115633 0.821842
vt 0.088530 0.808291
vt 0.088530 0.984457
vt 0.047877 0.794739
vt 0.115633 0.998008
vt 0.224043 0.632125
vt 0.054652 0.557593
vt 0.000447 0.496612
vt 0.224043 0.001992
vt 0.000447 0.001992
vn 0.947752 0.000000 0.319009
vn 0.947752 0.000000 0.319009
vn 0.947752 0.000000 0.319009
vn 0.947752 0.000000 0.319009
vn 0.947752 0.000000 0.319009
vn 0.947752 0.000000 0.319009
vn 0.947752 0.000000 0.319009
vn 0.947752 0.000000 0.319009
vn 0.947752 0.000000 0.319009
vn 0.947752 0.000000 0.319009
vn 0.947752 0.000000 0.319009
vn 0.947752 0.000000 0.319009
vn 0.947752 0.000000 0.319009
s 1
f 3/1/1 12/2/2 7/3/3
f 10/8/4 9/6/5 11/4/6
f 9/6/5 13/5/7 11/4/6
f 12/2/2 11/4/6 7/3/3
f 2/13/8 4/12/9 5/11/10
f 4/12/9 8/9/11 5/11/10
f 5/11/10 8/9/11 6/10/12
f 6/10/12 8/9/11 1/7/13
f 8/9/11 7/3/3 1/7/13
f 1/7/13 7/3/3 13/5/7
f 7/3/3 11/4/6 13/5/7
