# This file uses centimeters as units for non-parametric coordinates.

v 611.949058 1786.542153 601.746702
v 516.410769 -2035.331645 507.801223
v -611.949058 1784.864606 -601.746702
v -516.410771 -2035.331645 -507.801221
v -107.773010 2121.219423 -105.976229
vt 0.031253 0.001992
vt 0.379858 0.001992
vt 0.410292 0.915007
vt 0.241523 0.998008
vt 0.000819 0.915007
vn 0.701138 -0.000000 -0.713026
vn 0.701138 -0.000000 -0.713026
vn 0.701138 -0.000000 -0.713026
vn 0.701138 0.000000 -0.713026
vn 0.701138 0.000000 -0.713026
s 1
f 2/1/1 4/2/2 1/5/3
f 1/5/3 4/2/2 5/4/4
f 4/2/2 3/3/5 5/4/4
