# This file uses centimeters as units for non-parametric coordinates.

v -1439.844923 3781.576914 1306.582986
v -1171.991142 -4405.072002 838.370195
v 1396.435806 3875.685952 -1040.233874
v 1221.468531 -4322.620178 -1141.952968
v 223.970442 4556.597193 -48.446305
vt 0.031253 0.001992
vt 0.379858 0.001992
vt 0.410292 0.915007
vt 0.241523 0.998008
vt 0.000819 0.915007
vn 0.637780 -0.023163 0.769870
vn 0.637780 -0.023163 0.769870
vn 0.637780 -0.023163 0.769870
vn 0.637780 -0.023163 0.769870
vn 0.637780 -0.023163 0.769870
s 1
f 2/1/1 4/2/2 1/5/3
f 1/5/3 4/2/2 5/4/4
f 4/2/2 3/3/5 5/4/4
