# This file uses centimeters as units for non-parametric coordinates.

v -411.696752 1698.678353 934.511233
v -160.158962 -2093.448249 508.862067
v 222.929854 1856.569901 -652.512749
v 375.314088 -1958.797695 -830.281876
v -56.241549 2125.672695 27.754424
vt 0.031253 0.001992
vt 0.379858 0.001992
vt 0.410292 0.915007
vt 0.241523 0.998008
vt 0.000819 0.915007
vn 0.927657 0.019675 0.372913
vn 0.927657 0.019675 0.372913
vn 0.927657 0.019675 0.372913
vn 0.927657 0.019675 0.372913
vn 0.927657 0.019675 0.372913
s 1
f 2/1/1 4/2/2 1/5/3
f 1/5/3 4/2/2 5/4/4
f 4/2/2 3/3/5 5/4/4
