# This file uses centimeters as units for non-parametric coordinates.

v 268.292251 2697.103752 1267.588764
v 226.406110 -3072.695825 1069.691150
v -268.292251 2694.571196 -1267.588764
v -226.406114 -3072.695825 -1069.691149
v -47.250115 3202.358733 -223.240571
vt 0.031253 0.001992
vt 0.379858 0.001992
vt 0.410292 0.915007
vt 0.241523 0.998008
vt 0.000819 0.915007
vn 0.978326 -0.000000 -0.207068
vn 0.978326 -0.000000 -0.207068
vn 0.978326 -0.000000 -0.207068
vn 0.978326 0.000000 -0.207068
vn 0.978326 0.000000 -0.207068
s 1
f 2/1/1 4/2/2 1/5/3
f 1/5/3 4/2/2 5/4/4
f 4/2/2 3/3/5 5/4/4
