# This file uses centimeters as units for non-parametric coordinates.

v 177.714860 1786.542153 839.641693
v 149.969781 -2035.331645 708.555735
v -177.714860 1784.864606 -839.641693
v -149.969784 -2035.331645 -708.555734
v -31.298137 2121.219423 -147.872951
vt 0.031253 0.001992
vt 0.379858 0.001992
vt 0.410292 0.915007
vt 0.241523 0.998008
vt 0.000819 0.915007
vn 0.978326 -0.000000 -0.207068
vn 0.978326 -0.000000 -0.207068
vn 0.978326 -0.000000 -0.207068
vn 0.978326 0.000000 -0.207068
vn 0.978326 0.000000 -0.207068
s 1
f 2/1/1 4/2/2 1/5/3
f 1/5/3 4/2/2 5/4/4
f 4/2/2 3/3/5 5/4/4
