# This file uses centimeters as units for non-parametric coordinates.

v -1550.075370 2629.995542 1140.952806
v -1393.754190 -4220.393625 822.353827
v 2294.713588 2743.095216 -1483.929393
v 2216.101878 -4114.204821 -1642.136952
v -377.064519 3574.576150 368.253596
vt 0.030869 0.001992
vt 0.866941 0.001992
vt 0.896022 0.881685
vt 0.278056 0.998008
vt 0.001788 0.881685
vn 0.564169 -0.025508 0.825265
vn 0.564169 -0.025508 0.825265
vn 0.564169 -0.025508 0.825265
vn 0.564169 -0.025508 0.825265
vn 0.564169 -0.025508 0.825265
s 1
f 2/1/1 4/2/2 1/5/3
f 1/5/3 4/2/2 5/4/4
f 4/2/2 3/3/5 5/4/4
