# This file uses centimeters as units for non-parametric coordinates.

v -113.278943 1307.996868 -587.600512
v -25.692901 -1519.754070 -435.341463
v 42.816850 1336.615189 526.592425
v 106.005081 -1494.555399 504.878034
v -28.108172 1573.383717 61.874706
vt 0.031253 0.001992
vt 0.379858 0.001992
vt 0.410292 0.915007
vt 0.241523 0.998008
vt 0.000819 0.915007
vn -0.989981 -0.023163 0.139289
vn -0.989981 -0.023163 0.139289
vn -0.989981 -0.023163 0.139289
vn -0.989981 -0.023163 0.139289
vn -0.989981 -0.023163 0.139289
s 1
f 2/1/1 4/2/2 1/5/3
f 1/5/3 4/2/2 5/4/4
f 4/2/2 3/3/5 5/4/4
