# This file uses centimeters as units for non-parametric coordinates.

v 374.037045 1698.678353 950.211423
v 248.732164 -2093.448249 471.936231
v -306.590028 1856.569901 -617.635136
v -325.607783 -1958.797695 -851.004248
v -19.871485 2125.672695 59.485662
vt 0.031253 0.001992
vt 0.379858 0.001992
vt 0.410292 0.915007
vt 0.241523 0.998008
vt 0.000819 0.915007
vn 0.917838 0.019675 -0.396467
vn 0.917838 0.019675 -0.396467
vn 0.917838 0.019675 -0.396467
vn 0.917838 0.019675 -0.396467
vn 0.917838 0.019675 -0.396467
s 1
f 2/1/1 4/2/2 1/5/3
f 1/5/3 4/2/2 5/4/4
f 4/2/2 3/3/5 5/4/4
