# This file uses centimeters as units for non-parametric coordinates.

v -471.339403 1786.542153 717.230724
v -397.753282 -2035.331645 605.255724
v 471.339403 1784.864606 -717.230724
v 397.753279 -2035.331645 -605.255726
v 83.009632 2121.219423 -126.314622
vt 0.031253 0.001992
vt 0.379858 0.001992
vt 0.410292 0.915007
vt 0.241523 0.998008
vt 0.000819 0.915007
vn 0.835697 -0.000000 0.549191
vn 0.835697 -0.000000 0.549191
vn 0.835697 -0.000000 0.549191
vn 0.835697 0.000000 0.549191
vn 0.835697 0.000000 0.549191
s 1
f 2/1/1 4/2/2 1/5/3
f 1/5/3 4/2/2 5/4/4
f 4/2/2 3/3/5 5/4/4
