# This file uses centimeters as units for non-parametric coordinates.

v -962.600242 2368.925040 1180.987604
v -412.884204 -2997.261441 520.656764
v 559.959120 2667.542879 -701.212146
v 871.811605 -2743.267838 -1067.501323
v -105.091086 3017.889032 119.238918
vt 0.031253 0.001992
vt 0.379858 0.001992
vt 0.410292 0.915007
vt 0.241523 0.998008
vt 0.000819 0.915007
vn 0.777299 0.002210 0.629128
vn 0.777299 0.002210 0.629128
vn 0.777299 0.002210 0.629128
vn 0.777299 0.002210 0.629128
vn 0.777299 0.002210 0.629128
s 1
f 2/1/1 4/2/2 1/5/3
f 1/5/3 4/2/2 5/4/4
f 4/2/2 3/3/5 5/4/4
