# This file uses centimeters as units for non-parametric coordinates.

v 29.942763 -81.819758 -40.427125
v -10.686444 -81.496122 -49.694831
v -43.268539 -82.402928 -23.727309
v -43.268542 -83.857332 17.921368
v -10.686448 -84.764138 43.888895
v 29.942760 -84.440503 34.621194
v 48.024459 -83.130130 -2.902968
v 51.862387 -45.725569 -66.669779
v -18.509465 -45.165016 -82.721918
v -74.943309 -46.735650 -37.744846
v -74.943315 -49.254752 34.392782
v -18.509472 -50.825386 79.369859
v 51.862387 -50.264833 63.317731
v 83.180807 -47.995201 -1.676029
v 59.885526 2.620745 -75.048313
v -21.372888 3.268016 -93.583727
v -86.537077 1.454404 -41.648681
v -86.537083 -1.454404 41.648673
v -21.372896 -3.268016 93.583727
v 59.885520 -2.620745 75.048325
v 96.048918 0.000000 0.000000
v 51.862387 50.264833 -63.317720
v -18.509465 50.825386 -79.369859
v -74.943309 49.254752 -34.392787
v -74.943315 46.735650 37.744840
v -18.509472 45.165016 82.721918
v 51.862387 45.725569 66.669790
v 83.180807 47.995201 1.676029
v 29.942763 84.440502 -34.621188
v -10.686444 84.764138 -43.888895
v -43.268539 83.857332 -17.921373
v -43.268542 82.402928 23.727305
v -10.686448 81.496122 49.694831
v 29.942760 81.819757 40.427130
v 48.024459 83.130130 2.902968
v 0.000000 -95.990408 -3.352059
v 0.000000 95.990408 3.352059
vt 0.000000 0.166667
vt 0.142857 0.166667
vt 0.285714 0.166667
vt 0.428571 0.166667
vt 0.571429 0.166667
vt 0.714286 0.166667
vt 0.857143 0.166667
vt 1.000000 0.166667
vt 0.000000 0.333333
vt 0.142857 0.333333
vt 0.285714 0.333333
vt 0.428571 0.333333
vt 0.571429 0.333333
vt 0.714286 0.333333
vt 0.857143 0.333333
vt 1.000000 0.333333
vt 0.000000 0.500000
vt 0.142857 0.500000
vt 0.285714 0.500000
vt 0.428571 0.500000
vt 0.571429 0.500000
vt 0.714286 0.500000
vt 0.857143 0.500000
vt 1.000000 0.500000
vt 0.000000 0.666667
vt 0.142857 0.666667
vt 0.285714 0.666667
vt 0.428571 0.666667
vt 0.571429 0.666667
vt 0.714286 0.666667
vt 0.857143 0.666667
vt 1.000000 0.666667
vt 0.000000 0.833333
vt 0.142857 0.833333
vt 0.285714 0.833333
vt 0.428571 0.833333
vt 0.571429 0.833333
vt 0.714286 0.833333
vt 0.857143 0.833333
vt 1.000000 0.833333
vt 0.071429 0.000000
vt 0.214286 0.000000
vt 0.357143 0.000000
vt 0.500000 0.000000
vt 0.642857 0.000000
vt 0.785714 0.000000
vt 0.928572 0.000000
vt 0.071429 1.000000
vt 0.214286 1.000000
vt 0.357143 1.000000
vt 0.500000 1.000000
vt 0.642857 1.000000
vt 0.785714 1.000000
vt 0.928572 1.000000
vn 0.165319 -0.643677 -0.747228
vn 0.165319 -0.643677 -0.747228
vn 0.165319 -0.643677 -0.747228
vn 0.165319 -0.643677 -0.747228
vn -0.463213 -0.648683 -0.603857
vn -0.463213 -0.648683 -0.603857
vn -0.463213 -0.648683 -0.603857
vn -0.463213 -0.648683 -0.603857
vn -0.742936 -0.668954 -0.023360
vn -0.742936 -0.668954 -0.023360
vn -0.742936 -0.668954 -0.023360
vn -0.742936 -0.668954 -0.023360
vn -0.463213 -0.689226 0.557137
vn -0.463213 -0.689226 0.557137
vn -0.463213 -0.689226 0.557137
vn -0.463213 -0.689226 0.557137
vn 0.165319 -0.694233 0.700508
vn 0.165319 -0.694233 0.700508
vn 0.165319 -0.694233 0.700508
vn 0.165319 -0.694233 0.700508
vn 0.669362 -0.680204 0.298791
vn 0.669362 -0.680204 0.298791
vn 0.669362 -0.680204 0.298791
vn 0.669362 -0.680204 0.298791
vn 0.669362 -0.657705 -0.345512
vn 0.669362 -0.657705 -0.345512
vn 0.669362 -0.657705 -0.345512
vn 0.669362 -0.657705 -0.345512
vn 0.216307 -0.201455 -0.955315
vn 0.216307 -0.201455 -0.955315
vn 0.216307 -0.201455 -0.955315
vn 0.216307 -0.201455 -0.955315
vn -0.606079 -0.208006 -0.767725
vn -0.606079 -0.208006 -0.767725
vn -0.606079 -0.208006 -0.767725
vn -0.606079 -0.208006 -0.767725
vn -0.972075 -0.234529 -0.008190
vn -0.972075 -0.234529 -0.008190
vn -0.972075 -0.234529 -0.008190
vn -0.972075 -0.234529 -0.008190
vn -0.606079 -0.261053 0.751346
vn -0.606079 -0.261053 0.751346
vn -0.606079 -0.261053 0.751346
vn -0.606079 -0.261053 0.751346
vn 0.216307 -0.267604 0.938935
vn 0.216307 -0.267604 0.938935
vn 0.216307 -0.267604 0.938935
vn 0.216307 -0.267604 0.938935
vn 0.875809 -0.249249 0.413320
vn 0.875809 -0.249249 0.413320
vn 0.875809 -0.249249 0.413320
vn 0.875809 -0.249249 0.413320
vn 0.875809 -0.219810 -0.429700
vn 0.875809 -0.219810 -0.429700
vn 0.875809 -0.219810 -0.429700
vn 0.875809 -0.219810 -0.429700
vn 0.216307 0.267604 -0.938935
vn 0.216307 0.267604 -0.938935
vn 0.216307 0.267604 -0.938935
vn 0.216307 0.267604 -0.938935
vn -0.606079 0.261053 -0.751346
vn -0.606079 0.261053 -0.751346
vn -0.606079 0.261053 -0.751346
vn -0.606079 0.261053 -0.751346
vn -0.972075 0.234529 0.008190
vn -0.972075 0.234529 0.008190
vn -0.972075 0.234529 0.008190
vn -0.972075 0.234529 0.008190
vn -0.606079 0.208006 0.767725
vn -0.606079 0.208006 0.767725
vn -0.606079 0.208006 0.767725
vn -0.606079 0.208006 0.767725
vn 0.216307 0.201455 0.955315
vn 0.216307 0.201455 0.955315
vn 0.216307 0.201455 0.955315
vn 0.216307 0.201455 0.955315
vn 0.875809 0.219810 0.429700
vn 0.875809 0.219810 0.429700
vn 0.875809 0.219810 0.429700
vn 0.875809 0.219810 0.429700
vn 0.875809 0.249249 -0.413320
vn 0.875809 0.249249 -0.413320
vn 0.875809 0.249249 -0.413320
vn 0.875809 0.249249 -0.413320
vn 0.165319 0.694233 -0.700507
vn 0.165319 0.694233 -0.700507
vn 0.165319 0.694233 -0.700507
vn 0.165319 0.694233 -0.700507
vn -0.463213 0.689226 -0.557137
vn -0.463213 0.689226 -0.557137
vn -0.463213 0.689226 -0.557137
vn -0.463213 0.689226 -0.557137
vn -0.742936 0.668954 0.023360
vn -0.742936 0.668954 0.023360
vn -0.742936 0.668954 0.023360
vn -0.742936 0.668954 0.023360
vn -0.463213 0.648683 0.603857
vn -0.463213 0.648683 0.603857
vn -0.463213 0.648683 0.603857
vn -0.463213 0.648683 0.603857
vn 0.165319 0.643677 0.747228
vn 0.165319 0.643677 0.747228
vn 0.165319 0.643677 0.747228
vn 0.165319 0.643677 0.747228
vn 0.669362 0.657705 0.345512
vn 0.669362 0.657705 0.345512
vn 0.669362 0.657705 0.345512
vn 0.669362 0.657705 0.345512
vn 0.669362 0.680204 -0.298791
vn 0.669362 0.680204 -0.298791
vn 0.669362 0.680204 -0.298791
vn 0.669362 0.680204 -0.298791
vn 0.063432 -0.948226 -0.311197
vn 0.063432 -0.948226 -0.311197
vn 0.063432 -0.948226 -0.311197
vn -0.177733 -0.950147 -0.256186
vn -0.177733 -0.950147 -0.256186
vn -0.177733 -0.950147 -0.256186
vn -0.285062 -0.957925 -0.033451
vn -0.285062 -0.957925 -0.033451
vn -0.285062 -0.957925 -0.033451
vn -0.177733 -0.965703 0.189283
vn -0.177733 -0.965703 0.189283
vn -0.177733 -0.965703 0.189283
vn 0.063432 -0.967624 0.244294
vn 0.063432 -0.967624 0.244294
vn 0.063432 -0.967624 0.244294
vn 0.256832 -0.962242 0.090157
vn 0.256832 -0.962242 0.090157
vn 0.256832 -0.962242 0.090157
vn 0.256832 -0.953609 -0.157060
vn 0.256832 -0.953609 -0.157060
vn 0.256832 -0.953609 -0.157060
vn 0.063432 0.967624 -0.244294
vn 0.063432 0.967624 -0.244294
vn 0.063432 0.967624 -0.244294
vn -0.177733 0.965703 -0.189283
vn -0.177733 0.965703 -0.189283
vn -0.177733 0.965703 -0.189283
vn -0.285062 0.957925 0.033451
vn -0.285062 0.957925 0.033451
vn -0.285062 0.957925 0.033451
vn -0.177733 0.950147 0.256186
vn -0.177733 0.950147 0.256186
vn -0.177733 0.950147 0.256186
vn 0.063432 0.948226 0.311197
vn 0.063432 0.948226 0.311197
vn 0.063432 0.948226 0.311197
vn 0.256832 0.953609 0.157060
vn 0.256832 0.953609 0.157060
vn 0.256832 0.953609 0.157060
vn 0.256832 0.962242 -0.090157
vn 0.256832 0.962242 -0.090157
vn 0.256832 0.962242 -0.090157
s off
f 1/1/1 2/2/2 9/10/3 8/9/4
f 2/2/5 3/3/6 10/11/7 9/10/8
f 3/3/9 4/4/10 11/12/11 10/11/12
f 4/4/13 5/5/14 12/13/15 11/12/16
f 5/5/17 6/6/18 13/14/19 12/13/20
f 6/6/21 7/7/22 14/15/23 13/14/24
f 7/7/25 1/8/26 8/16/27 14/15/28
f 8/9/29 9/10/30 16/18/31 15/17/32
f 9/10/33 10/11/34 17/19/35 16/18/36
f 10/11/37 11/12/38 18/20/39 17/19/40
f 11/12/41 12/13/42 19/21/43 18/20/44
f 12/13/45 13/14/46 20/22/47 19/21/48
f 13/14/49 14/15/50 21/23/51 20/22/52
f 14/15/53 8/16/54 15/24/55 21/23/56
f 15/17/57 16/18/58 23/26/59 22/25/60
f 16/18/61 17/19/62 24/27/63 23/26/64
f 17/19/65 18/20/66 25/28/67 24/27/68
f 18/20/69 19/21/70 26/29/71 25/28/72
f 19/21/73 20/22/74 27/30/75 26/29/76
f 20/22/77 21/23/78 28/31/79 27/30/80
f 21/23/81 15/24/82 22/32/83 28/31/84
f 22/25/85 23/26/86 30/34/87 29/33/88
f 23/26/89 24/27/90 31/35/91 30/34/92
f 24/27/93 25/28/94 32/36/95 31/35/96
f 25/28/97 26/29/98 33/37/99 32/36/100
f 26/29/101 27/30/102 34/38/103 33/37/104
f 27/30/105 28/31/106 35/39/107 34/38/108
f 28/31/109 22/32/110 29/40/111 35/39/112
f 2/2/113 1/1/114 36/41/115
f 3/3/116 2/2/117 36/42/118
f 4/4/119 3/3/120 36/43/121
f 5/5/122 4/4/123 36/44/124
f 6/6/125 5/5/126 36/45/127
f 7/7/128 6/6/129 36/46/130
f 1/8/131 7/7/132 36/47/133
f 29/33/134 30/34/135 37/48/136
f 30/34/137 31/35/138 37/49/139
f 31/35/140 32/36/141 37/50/142
f 32/36/143 33/37/144 37/51/145
f 33/37/146 34/38/147 37/52/148
f 34/38/149 35/39/150 37/53/151
f 35/39/152 29/40/153 37/54/154
