# This file uses centimeters as units for non-parametric coordinates.

v 58.909894 -142.155364 -63.909977
v 0.000000 -141.303772 -88.296388
v -58.909894 -142.155364 -63.909977
v -83.311170 -144.211290 -5.035969
v -58.909894 -146.267216 53.838039
v 0.000000 -147.118808 78.224454
v 58.909899 -146.267216 53.838043
v 83.311180 -144.211290 -5.035969
v 102.034934 -79.699456 -104.880295
v 0.000000 -78.224455 -147.118798
v -102.034934 -79.699456 -104.880295
v -144.299183 -83.260424 -2.907518
v -102.034934 -86.821392 99.065259
v 0.000000 -88.296393 141.303772
v 102.034944 -86.821392 99.065269
v 144.299203 -83.260424 -2.907518
v 117.819788 4.111851 -117.748015
v 0.000000 5.815036 -166.520837
v -117.819788 4.111851 -117.748015
v -166.622339 0.000000 0.000000
v -117.819788 -4.111851 117.748015
v 0.000000 -5.815036 166.520847
v 117.819798 -4.111852 117.748025
v 166.622359 0.000000 0.000000
v 102.034934 86.821392 -99.065259
v 0.000000 88.296393 -141.303762
v -102.034934 86.821392 -99.065259
v -144.299183 83.260424 2.907518
v -102.034934 79.699456 104.880295
v 0.000000 78.224454 147.118808
v 102.034944 79.699455 104.880305
v 144.299203 83.260424 2.907518
v 58.909894 146.267216 -53.838039
v 0.000000 147.118808 -78.224449
v -58.909894 146.267216 -53.838039
v -83.311170 144.211290 5.035969
v -58.909894 142.155364 63.909977
v 0.000000 141.303772 88.296393
v 58.909899 142.155364 63.909982
v 83.311180 144.211290 5.035969
v 0.000000 -166.520857 -5.815036
v 0.000000 166.520857 5.815036
vt 0.000000 0.166667
vt 0.125000 0.166667
vt 0.250000 0.166667
vt 0.375000 0.166667
vt 0.500000 0.166667
vt 0.625000 0.166667
vt 0.750000 0.166667
vt 0.875000 0.166667
vt 1.000000 0.166667
vt 0.000000 0.333333
vt 0.125000 0.333333
vt 0.250000 0.333333
vt 0.375000 0.333333
vt 0.500000 0.333333
vt 0.625000 0.333333
vt 0.750000 0.333333
vt 0.875000 0.333333
vt 1.000000 0.333333
vt 0.000000 0.500000
vt 0.125000 0.500000
vt 0.250000 0.500000
vt 0.375000 0.500000
vt 0.500000 0.500000
vt 0.625000 0.500000
vt 0.750000 0.500000
vt 0.875000 0.500000
vt 1.000000 0.500000
vt 0.000000 0.666667
vt 0.125000 0.666667
vt 0.250000 0.666667
vt 0.375000 0.666667
vt 0.500000 0.666667
vt 0.625000 0.666667
vt 0.750000 0.666667
vt 0.875000 0.666667
vt 1.000000 0.666667
vt 0.000000 0.833333
vt 0.125000 0.833333
vt 0.250000 0.833333
vt 0.375000 0.833333
vt 0.500000 0.833333
vt 0.625000 0.833333
vt 0.750000 0.833333
vt 0.875000 0.833333
vt 1.000000 0.833333
vt 0.062500 0.000000
vt 0.187500 0.000000
vt 0.312500 0.000000
vt 0.437500 0.000000
vt 0.562500 0.000000
vt 0.687500 0.000000
vt 0.812500 0.000000
vt 0.937500 0.000000
vt 0.062500 1.000000
vt 0.187500 1.000000
vt 0.312500 1.000000
vt 0.437500 1.000000
vt 0.562500 1.000000
vt 0.687500 1.000000
vt 0.812500 1.000000
vt 0.937500 1.000000
vn 0.281085 -0.654502 -0.701868
vn 0.281085 -0.654502 -0.701868
vn 0.281085 -0.654502 -0.701868
vn 0.281085 -0.654502 -0.701868
vn -0.281085 -0.654502 -0.701868
vn -0.281085 -0.654502 -0.701868
vn -0.281085 -0.654502 -0.701868
vn -0.281085 -0.654502 -0.701868
vn -0.678598 -0.668375 -0.304596
vn -0.678598 -0.668375 -0.304596
vn -0.678598 -0.668375 -0.304596
vn -0.678598 -0.668375 -0.304596
vn -0.678598 -0.687995 0.257231
vn -0.678598 -0.687995 0.257231
vn -0.678598 -0.687995 0.257231
vn -0.678598 -0.687995 0.257231
vn -0.281085 -0.701868 0.654502
vn -0.281085 -0.701868 0.654502
vn -0.281085 -0.701868 0.654502
vn -0.281085 -0.701868 0.654502
vn 0.281085 -0.701868 0.654502
vn 0.281085 -0.701868 0.654502
vn 0.281085 -0.701868 0.654502
vn 0.281085 -0.701868 0.654502
vn 0.678598 -0.687995 0.257231
vn 0.678598 -0.687995 0.257231
vn 0.678598 -0.687995 0.257231
vn 0.678598 -0.687995 0.257231
vn 0.678598 -0.668375 -0.304596
vn 0.678598 -0.668375 -0.304596
vn 0.678598 -0.668375 -0.304596
vn 0.678598 -0.668375 -0.304596
vn 0.371470 -0.208855 -0.904649
vn 0.371470 -0.208855 -0.904649
vn 0.371470 -0.208855 -0.904649
vn 0.371470 -0.208855 -0.904649
vn -0.371470 -0.208855 -0.904649
vn -0.371470 -0.208855 -0.904649
vn -0.371470 -0.208855 -0.904649
vn -0.371470 -0.208855 -0.904649
vn -0.896809 -0.227189 -0.379630
vn -0.896809 -0.227189 -0.379630
vn -0.896809 -0.227189 -0.379630
vn -0.896809 -0.227189 -0.379630
vn -0.896809 -0.253117 0.362858
vn -0.896809 -0.253117 0.362858
vn -0.896809 -0.253117 0.362858
vn -0.896809 -0.253117 0.362858
vn -0.371470 -0.271451 0.887876
vn -0.371470 -0.271451 0.887876
vn -0.371470 -0.271451 0.887876
vn -0.371470 -0.271451 0.887876
vn 0.371470 -0.271451 0.887876
vn 0.371470 -0.271451 0.887876
vn 0.371470 -0.271451 0.887876
vn 0.371470 -0.271451 0.887876
vn 0.896809 -0.253117 0.362858
vn 0.896809 -0.253117 0.362858
vn 0.896809 -0.253117 0.362858
vn 0.896809 -0.253117 0.362858
vn 0.896809 -0.227188 -0.379631
vn 0.896809 -0.227188 -0.379631
vn 0.896809 -0.227189 -0.379631
vn 0.896809 -0.227189 -0.379631
vn 0.371470 0.271451 -0.887876
vn 0.371470 0.271451 -0.887876
vn 0.371470 0.271451 -0.887876
vn 0.371470 0.271451 -0.887876
vn -0.371470 0.271451 -0.887876
vn -0.371470 0.271451 -0.887876
vn -0.371470 0.271451 -0.887876
vn -0.371470 0.271451 -0.887876
vn -0.896809 0.253117 -0.362858
vn -0.896809 0.253117 -0.362858
vn -0.896809 0.253117 -0.362858
vn -0.896809 0.253117 -0.362858
vn -0.896809 0.227188 0.379630
vn -0.896809 0.227188 0.379630
vn -0.896809 0.227188 0.379630
vn -0.896809 0.227188 0.379630
vn -0.371470 0.208855 0.904649
vn -0.371470 0.208855 0.904649
vn -0.371470 0.208855 0.904649
vn -0.371470 0.208855 0.904649
vn 0.371470 0.208855 0.904649
vn 0.371470 0.208855 0.904649
vn 0.371470 0.208855 0.904649
vn 0.371470 0.208855 0.904649
vn 0.896809 0.227189 0.379630
vn 0.896809 0.227189 0.379630
vn 0.896809 0.227189 0.379630
vn 0.896809 0.227189 0.379630
vn 0.896809 0.253117 -0.362858
vn 0.896809 0.253117 -0.362858
vn 0.896809 0.253117 -0.362858
vn 0.896809 0.253117 -0.362858
vn 0.281085 0.701868 -0.654502
vn 0.281085 0.701868 -0.654502
vn 0.281085 0.701868 -0.654502
vn 0.281085 0.701868 -0.654502
vn -0.281085 0.701868 -0.654502
vn -0.281085 0.701868 -0.654502
vn -0.281085 0.701868 -0.654502
vn -0.281085 0.701868 -0.654502
vn -0.678598 0.687995 -0.257231
vn -0.678598 0.687995 -0.257231
vn -0.678598 0.687995 -0.257231
vn -0.678598 0.687995 -0.257231
vn -0.678598 0.668375 0.304596
vn -0.678598 0.668375 0.304596
vn -0.678598 0.668375 0.304596
vn -0.678598 0.668375 0.304596
vn -0.281085 0.654502 0.701868
vn -0.281085 0.654502 0.701868
vn -0.281085 0.654502 0.701868
vn -0.281085 0.654502 0.701868
vn 0.281085 0.654502 0.701868
vn 0.281085 0.654502 0.701868
vn 0.281085 0.654502 0.701868
vn 0.281085 0.654502 0.701868
vn 0.678598 0.668375 0.304596
vn 0.678598 0.668375 0.304596
vn 0.678598 0.668375 0.304596
vn 0.678598 0.668375 0.304596
vn 0.678598 0.687995 -0.257231
vn 0.678598 0.687995 -0.257231
vn 0.678598 0.687995 -0.257231
vn 0.678598 0.687995 -0.257231
vn 0.106596 -0.950856 -0.290706
vn 0.106596 -0.950856 -0.290706
vn 0.106596 -0.950856 -0.290706
vn -0.106596 -0.950856 -0.290706
vn -0.106596 -0.950856 -0.290706
vn -0.106596 -0.950856 -0.290706
vn -0.257344 -0.956117 -0.140049
vn -0.257344 -0.956117 -0.140049
vn -0.257344 -0.956117 -0.140049
vn -0.257344 -0.963557 0.073012
vn -0.257344 -0.963557 0.073012
vn -0.257344 -0.963557 0.073012
vn -0.106596 -0.968818 0.223670
vn -0.106596 -0.968818 0.223670
vn -0.106596 -0.968819 0.223670
vn 0.106596 -0.968818 0.223670
vn 0.106596 -0.968818 0.223670
vn 0.106596 -0.968818 0.223670
vn 0.257344 -0.963557 0.073013
vn 0.257344 -0.963557 0.073013
vn 0.257344 -0.963557 0.073013
vn 0.257344 -0.956117 -0.140049
vn 0.257344 -0.956117 -0.140049
vn 0.257344 -0.956117 -0.140049
vn 0.106596 0.968818 -0.223670
vn 0.106596 0.968818 -0.223670
vn 0.106596 0.968818 -0.223670
vn -0.106596 0.968818 -0.223670
vn -0.106596 0.968818 -0.223670
vn -0.106596 0.968818 -0.223670
vn -0.257344 0.963557 -0.073012
vn -0.257344 0.963557 -0.073012
vn -0.257344 0.963557 -0.073012
vn -0.257344 0.956117 0.140049
vn -0.257344 0.956117 0.140049
vn -0.257344 0.956117 0.140049
vn -0.106596 0.950856 0.290706
vn -0.106596 0.950856 0.290706
vn -0.106596 0.950856 0.290706
vn 0.106596 0.950856 0.290706
vn 0.106596 0.950856 0.290706
vn 0.106596 0.950856 0.290706
vn 0.257344 0.956117 0.140049
vn 0.257344 0.956117 0.140049
vn 0.257344 0.956117 0.140049
vn 0.257344 0.963557 -0.073013
vn 0.257344 0.963557 -0.073013
vn 0.257344 0.963557 -0.073013
s off
f 1/1/1 2/2/2 10/11/3 9/10/4
f 2/2/5 3/3/6 11/12/7 10/11/8
f 3/3/9 4/4/10 12/13/11 11/12/12
f 4/4/13 5/5/14 13/14/15 12/13/16
f 5/5/17 6/6/18 14/15/19 13/14/20
f 6/6/21 7/7/22 15/16/23 14/15/24
f 7/7/25 8/8/26 16/17/27 15/16/28
f 8/8/29 1/9/30 9/18/31 16/17/32
f 9/10/33 10/11/34 18/20/35 17/19/36
f 10/11/37 11/12/38 19/21/39 18/20/40
f 11/12/41 12/13/42 20/22/43 19/21/44
f 12/13/45 13/14/46 21/23/47 20/22/48
f 13/14/49 14/15/50 22/24/51 21/23/52
f 14/15/53 15/16/54 23/25/55 22/24/56
f 15/16/57 16/17/58 24/26/59 23/25/60
f 16/17/61 9/18/62 17/27/63 24/26/64
f 17/19/65 18/20/66 26/29/67 25/28/68
f 18/20/69 19/21/70 27/30/71 26/29/72
f 19/21/73 20/22/74 28/31/75 27/30/76
f 20/22/77 21/23/78 29/32/79 28/31/80
f 21/23/81 22/24/82 30/33/83 29/32/84
f 22/24/85 23/25/86 31/34/87 30/33/88
f 23/25/89 24/26/90 32/35/91 31/34/92
f 24/26/93 17/27/94 25/36/95 32/35/96
f 25/28/97 26/29/98 34/38/99 33/37/100
f 26/29/101 27/30/102 35/39/103 34/38/104
f 27/30/105 28/31/106 36/40/107 35/39/108
f 28/31/109 29/32/110 37/41/111 36/40/112
f 29/32/113 30/33/114 38/42/115 37/41/116
f 30/33/117 31/34/118 39/43/119 38/42/120
f 31/34/121 32/35/122 40/44/123 39/43/124
f 32/35/125 25/36/126 33/45/127 40/44/128
f 2/2/129 1/1/130 41/46/131
f 3/3/132 2/2/133 41/47/134
f 4/4/135 3/3/136 41/48/137
f 5/5/138 4/4/139 41/49/140
f 6/6/141 5/5/142 41/50/143
f 7/7/144 6/6/145 41/51/146
f 8/8/147 7/7/148 41/52/149
f 1/9/150 8/8/151 41/53/152
f 33/37/153 34/38/154 42/54/155
f 34/38/156 35/39/157 42/55/158
f 35/39/159 36/40/160 42/56/161
f 36/40/162 37/41/163 42/57/164
f 37/41/165 38/42/166 42/58/167
f 38/42/168 39/43/169 42/59/170
f 39/43/171 40/44/172 42/60/173
f 40/44/174 33/45/175 42/61/176
