# This file uses centimeters as units for non-parametric coordinates.

v -178.621819 234.676391 -84.727492
v -4.260219 -47.198601 22.791478
v -172.374044 -16.546749 32.445021
v 173.375868 -0.620362 -24.520414
v 5.083349 25.443834 -12.685250
v 183.769247 -234.708981 84.006156
vt 0.000000 0.500000
vt 0.500000 0.000000
vt 0.500000 1.000000
vt 1.000000 0.000000
vt 1.000000 1.000000
vt 0.000000 0.000000
vt 1.000000 0.000000
vt 0.500000 1.000000
vn -0.128447 -0.421813 -0.897538
vn -0.128447 -0.421813 -0.897538
vn -0.128447 -0.421813 -0.897538
vn -0.128447 -0.421813 -0.897538
vn -0.128447 -0.421813 -0.897538
vn -0.128447 -0.421813 -0.897538
vn -0.128447 -0.421813 -0.897538
vn -0.128447 -0.421813 -0.897538
vn -0.128447 -0.421813 -0.897538
vn -0.128447 -0.421813 -0.897538
vn -0.128447 -0.421813 -0.897538
vn -0.128447 -0.421813 -0.897538
s off
f 1/1/1 4/2/2 5/3/3
f 4/2/4 2/4/5 5/3/6
f 5/3/7 2/4/8 3/5/9
f 3/6/10 2/7/11 6/8/12
