# This file uses centimeters as units for non-parametric coordinates.

v 195.977209 234.917391 23.754225
v -3.080820 -47.247334 -22.880272
v 153.426847 -16.564950 -85.000531
v -156.854291 -0.619869 77.827850
v -0.858917 25.470123 13.589694
v -200.636203 -234.949982 -21.449856
vt 0.000000 0.500000
vt 0.500000 0.000000
vt 0.500000 1.000000
vt 1.000000 0.000000
vt 1.000000 1.000000
vt 0.000000 0.000000
vt 1.000000 0.000000
vt 0.500000 1.000000
vn 0.404743 -0.419797 0.812375
vn 0.404743 -0.419797 0.812375
vn 0.404743 -0.419797 0.812375
vn 0.404743 -0.419797 0.812375
vn 0.404743 -0.419797 0.812375
vn 0.404743 -0.419797 0.812375
vn 0.404743 -0.419797 0.812375
vn 0.404743 -0.419797 0.812375
vn 0.404743 -0.419797 0.812375
vn 0.404743 -0.419797 0.812375
vn 0.404743 -0.419797 0.812375
vn 0.404743 -0.419797 0.812375
s off
f 1/1/1 4/2/2 5/3/3
f 4/2/4 2/4/5 5/3/6
f 5/3/7 2/4/8 3/5/9
f 3/6/10 2/7/11 6/8/12
