# This file uses centimeters as units for non-parametric coordinates.

v -7.646623 233.466273 198.978740
v 23.013300 -46.953901 -5.570282
v 99.388721 -16.455357 144.535077
v -92.381784 -0.622835 -148.748262
v -13.895291 25.311830 0.613879
v 4.910089 -233.498864 -203.397758
vt 0.000000 0.500000
vt 0.500000 0.000000
vt 0.500000 1.000000
vt 1.000000 0.000000
vt 1.000000 1.000000
vt 0.000000 0.000000
vt 1.000000 0.000000
vt 0.500000 1.000000
vn -0.765425 -0.431764 0.477184
vn -0.765425 -0.431764 0.477184
vn -0.765425 -0.431764 0.477184
vn -0.765425 -0.431764 0.477184
vn -0.765425 -0.431764 0.477184
vn -0.765425 -0.431764 0.477184
vn -0.765425 -0.431764 0.477184
vn -0.765425 -0.431764 0.477184
vn -0.765425 -0.431764 0.477184
vn -0.765425 -0.431764 0.477184
vn -0.765425 -0.431764 0.477184
vn -0.765425 -0.431764 0.477184
s off
f 1/1/1 4/2/2 5/3/3
f 4/2/4 2/4/5 5/3/6
f 5/3/7 2/4/8 3/5/9
f 3/6/10 2/7/11 6/8/12
