# This file uses centimeters as units for non-parametric coordinates.

v 1.878272 -30.421286 -14.713243
v -15.418240 -30.421286 -9.093198
v -15.418240 -30.421286 9.093198
v 1.878272 -30.421286 14.713243
v 12.567833 -30.421286 0.000104
v 6.489945 30.366784 -28.906417
v -27.491758 30.366784 -17.865183
v -27.491758 30.366784 17.865183
v 6.489945 30.366784 28.906417
v 27.491760 30.366784 0.000104
v 5.263591 30.421284 -25.132547
v -24.281410 30.421284 -15.532736
v -24.281410 30.421284 15.532736
v 5.263591 30.421284 25.132493
v 23.523342 30.421284 0.000104
v 1.311451 -24.432411 -12.969136
v -13.934633 -24.432411 -8.015327
v -2.902509 -24.432411 0.000104
v -13.934633 -24.432411 8.015327
v 1.311451 -24.432411 12.969136
v 10.734067 -24.432411 0.000104
vt 0.172183 0.354311
vt 0.071935 0.354311
vt 0.198911 0.001992
vt 0.001959 0.001992
vt 0.378794 0.001992
vt 0.484200 0.001992
vt 0.327953 0.354311
vt 0.535041 0.354311
vt 0.612576 0.001992
vt 0.712824 0.001992
vt 0.542600 0.354311
vt 0.739552 0.354311
vt 0.774780 0.001992
vt 0.861275 0.354311
vt 0.234138 0.354311
vt 0.320634 0.001992
vt 0.374155 0.830418
vt 0.285791 0.801707
vt 0.349732 0.755251
vt 0.285791 0.708796
vt 0.374155 0.680084
vt 0.428767 0.755251
vt 0.859661 0.693311
vt 0.662709 0.629317
vt 0.852554 0.671437
vt 0.681315 0.615798
vt 0.662708 0.422229
vt 0.681315 0.435748
vt 0.859661 0.358236
vt 0.852554 0.380109
vt 0.981384 0.525773
vt 0.958384 0.525773
vt 0.550844 0.676159
vt 0.379606 0.676159
vt 0.527939 0.358236
vt 0.439574 0.358236
vt 0.373573 0.676159
vt 0.193523 0.676159
vt 0.330003 0.358236
vt 0.237092 0.358236
vt 0.001959 0.680084
vt 0.173197 0.680084
vt 0.061927 0.998008
vt 0.150291 0.998008
vt 0.279028 0.680084
vt 0.204903 0.998008
vt 0.656675 0.676159
vt 0.582550 0.358236
vn -0.303100 -0.194809 -0.932834
vn -0.303100 -0.194809 -0.932834
vn -0.303100 -0.194809 -0.932834
vn -0.303094 -0.194812 -0.932836
vn -0.303094 -0.194812 -0.932836
vn -0.303094 -0.194812 -0.932836
vn -0.980841 -0.194811 0.000000
vn -0.980841 -0.194811 0.000000
vn -0.980841 -0.194811 0.000000
vn -0.980841 -0.194811 0.000000
vn -0.980841 -0.194811 0.000000
vn -0.980841 -0.194811 0.000000
vn -0.303100 -0.194813 0.932834
vn -0.303100 -0.194813 0.932834
vn -0.303100 -0.194813 0.932834
vn -0.303094 -0.194810 0.932836
vn -0.303094 -0.194810 0.932836
vn -0.303094 -0.194810 0.932836
vn 0.793521 -0.194809 0.576518
vn 0.793521 -0.194809 0.576518
vn 0.793521 -0.194809 0.576518
vn 0.793514 -0.194814 0.576526
vn 0.793514 -0.194814 0.576526
vn 0.793514 -0.194814 0.576526
vn 0.793524 -0.194816 -0.576512
vn 0.793524 -0.194816 -0.576512
vn 0.793524 -0.194816 -0.576512
vn 0.793517 -0.194810 -0.576524
vn 0.793517 -0.194810 -0.576524
vn 0.793517 -0.194810 -0.576524
vn 0.000000 1.000000 0.000000
vn 0.000000 1.000000 0.000000
vn 0.000000 1.000000 0.000000
vn 0.000000 1.000000 0.000000
vn 0.000000 1.000000 0.000000
vn 0.000000 1.000000 0.000000
vn 0.000000 1.000000 -0.000000
vn 0.000000 1.000000 -0.000000
vn 0.000000 1.000000 -0.000000
vn 0.000000 1.000000 -0.000000
vn 0.000000 1.000000 -0.000000
vn 0.000000 1.000000 -0.000000
vn 0.000000 1.000000 0.000000
vn 0.000000 1.000000 0.000000
vn 0.000000 1.000000 0.000000
vn -0.005245 0.999856 -0.016143
vn -0.005245 0.999856 -0.016143
vn -0.005245 0.999856 -0.016143
vn -0.005245 0.999856 -0.016143
vn -0.005245 0.999856 -0.016143
vn -0.005245 0.999856 -0.016143
vn -0.016974 0.999856 0.000000
vn -0.016974 0.999856 0.000000
vn -0.016974 0.999856 0.000000
vn -0.016974 0.999856 0.000000
vn -0.016974 0.999856 0.000000
vn -0.016974 0.999856 0.000000
vn -0.005245 0.999856 0.016142
vn -0.005245 0.999856 0.016142
vn -0.005245 0.999856 0.016142
vn -0.005245 0.999856 0.016146
vn -0.005245 0.999856 0.016146
vn -0.005245 0.999856 0.016146
vn 0.013732 0.999856 0.009977
vn 0.013732 0.999856 0.009977
vn 0.013732 0.999856 0.009977
vn 0.013731 0.999856 0.009976
vn 0.013731 0.999856 0.009976
vn 0.013731 0.999856 0.009976
vn 0.013731 0.999856 -0.009976
vn 0.013731 0.999856 -0.009976
vn 0.013731 0.999856 -0.009976
vn 0.013732 0.999856 -0.009977
vn 0.013732 0.999856 -0.009977
vn 0.013732 0.999856 -0.009977
vn 0.303664 0.185357 0.934575
vn 0.303664 0.185357 0.934575
vn 0.303664 0.185357 0.934575
vn 0.303665 0.185357 0.934575
vn 0.303665 0.185357 0.934575
vn 0.303665 0.185357 0.934575
vn 0.982671 0.185356 0.000000
vn 0.982671 0.185356 0.000000
vn 0.982671 0.185356 0.000000
vn 0.982671 0.185356 0.000000
vn 0.982671 0.185356 0.000000
vn 0.982671 0.185356 0.000000
vn 0.303662 0.185357 -0.934576
vn 0.303662 0.185357 -0.934576
vn 0.303662 0.185357 -0.934576
vn 0.303665 0.185356 -0.934575
vn 0.303665 0.185356 -0.934575
vn 0.303665 0.185356 -0.934575
vn -0.794998 0.185357 -0.577600
vn -0.794998 0.185357 -0.577600
vn -0.794998 0.185357 -0.577600
vn -0.794996 0.185355 -0.577602
vn -0.794996 0.185355 -0.577602
vn -0.794996 0.185355 -0.577602
vn -0.795001 0.185356 0.577596
vn -0.795001 0.185356 0.577596
vn -0.795001 0.185356 0.577596
vn -0.795000 0.185357 0.577596
vn -0.795000 0.185357 0.577596
vn -0.795000 0.185357 0.577596
s off
f 1/1/1 2/2/2 6/3/3
f 6/3/4 2/2/5 7/4/6
f 2/5/7 3/6/8 7/7/9
f 7/7/10 3/6/11 8/8/12
f 3/9/13 4/10/14 8/11/15
f 8/11/16 4/10/17 9/12/18
f 4/10/19 5/13/20 9/12/21
f 9/12/22 5/13/23 10/14/24
f 5/15/25 1/1/26 10/16/27
f 10/16/28 1/1/29 6/3/30
f 16/17/31 17/18/32 18/19/33
f 17/18/34 19/20/35 18/19/36
f 19/20/37 20/21/38 18/19/39
f 20/21/40 21/22/41 18/19/42
f 21/22/43 16/17/44 18/19/45
f 6/23/46 7/24/47 11/25/48
f 11/25/49 7/24/50 12/26/51
f 7/24/52 8/27/53 12/26/54
f 12/26/55 8/27/56 13/28/57
f 8/27/58 9/29/59 13/28/60
f 13/28/61 9/29/62 14/30/63
f 9/29/64 10/31/65 14/30/66
f 14/30/67 10/31/68 15/32/69
f 10/31/70 6/23/71 15/32/72
f 15/32/73 6/23/74 11/25/75
f 11/33/76 12/34/77 16/35/78
f 16/35/79 12/34/80 17/36/81
f 12/37/82 13/38/83 17/39/84
f 17/39/85 13/38/86 19/40/87
f 13/41/88 14/42/89 19/43/90
f 19/43/91 14/42/92 20/44/93
f 14/42/94 15/45/95 20/44/96
f 20/44/97 15/45/98 21/46/99
f 15/47/100 11/33/101 21/48/102
f 21/48/103 11/33/104 16/35/105
